<svg width="70" height="80" viewBox="0 0 70 80" fill="none" xmlns="http://www.w3.org/2000/svg">
<path d="M0 0H70V75C70 77.7614 67.7614 80 65 80H5C2.23858 80 0 77.7614 0 75V0Z" fill="#3963FF"/>
<path d="M10.5703 69.6856H59.458V58.894H10.5703V69.6856ZM52.2454 65.61C52.2454 65.2643 52.2677 65.0003 52.3125 64.8212C52.3572 64.6422 52.459 64.4946 52.619 64.376C52.7768 64.2563 53.033 64.1601 53.3764 64.0806C52.9043 64.0459 52.5966 63.9296 52.4579 63.7327C52.317 63.538 52.2454 63.1879 52.2454 62.6822C52.2454 62.228 52.3114 61.8711 52.4411 61.6138C52.5732 61.3576 52.7622 61.173 53.0084 61.06C53.2567 60.9481 53.542 60.881 53.8642 60.8564C54.1864 60.8317 54.6921 60.8206 55.3812 60.8206H56.8435V67.6405H54.7794V64.5718C54.5187 64.5718 54.3486 64.6087 54.2726 64.6825C54.1954 64.7575 54.1584 64.9219 54.1584 65.1737V67.6405H52.2442V65.61H52.2454ZM46.8373 60.8217H48.559V63.8994L49.7125 60.8217H51.4354V67.6416H49.7125V64.5382L48.6429 67.6416H46.8373V60.8217ZM39.657 60.8261H42.3208C42.4002 61.2356 42.4819 61.72 42.5658 62.2761L42.8589 64.009L43.3322 60.8261H46.0116V67.6428H44.2104L44.207 63.0413L43.491 67.6428H42.2134L41.4594 63.1465L41.4549 67.6428H39.657V60.8261ZM35.4941 60.8261H38.9276V62.191H37.5538V63.4821H38.8403V64.7799H37.5538V66.2779H39.0652V67.6428H35.4941V60.8261ZM28.6864 66.2186H29.1071C29.3309 65.6614 29.5121 64.9264 29.6531 64.0146C29.7963 63.1039 29.8667 62.1083 29.8667 61.0286V60.8217H34.4346V66.2108H34.8553V68.8175H33.4322V67.6428H30.105V68.8175H28.6876V66.2186H28.6864ZM18.5079 60.8217H20.5732L20.5821 63.7014C20.9703 63.6935 21.1717 63.5078 21.1851 63.1453L21.2232 61.8151C21.2355 61.3229 21.3462 60.9917 21.5554 60.8206H23.4585C23.2716 60.985 23.181 61.3285 23.1832 61.8465L23.1933 63.0189C23.2 63.7271 22.738 64.1299 21.8038 64.2249C22.738 64.3245 23.2 64.7317 23.1933 65.45L23.1832 66.5386C23.181 67.0151 23.2604 67.3642 23.4193 67.588L24.462 60.8239H27.4379L28.6148 67.6405H26.5116L26.4008 66.4155H25.6635L25.5416 67.6405H23.4585C23.4462 67.6249 23.4316 67.6059 23.4193 67.588L23.4115 67.6405H21.5566C21.3339 67.4694 21.2243 67.1382 21.2243 66.6482V65.3169C21.2243 65.149 21.1639 65.0137 21.0464 64.9096C20.9278 64.8078 20.7723 64.7552 20.5821 64.7519L20.5732 67.6405H18.5079V60.8217ZM14.0038 60.8261H16.9797L18.1589 67.6428H16.0534L15.9437 66.4177H15.2065L15.0823 67.6428H12.9533L14.0038 60.8261Z" fill="white"/>
<path d="M39.3561 57.9536V54.3735H40.2075V53.4248H37.0156V54.3735H37.8715V57.9536H39.3561Z" fill="white"/>
<path d="M43.8799 55.7697V55.1689C43.8799 54.7304 43.8251 54.3903 43.7165 54.1464C43.6069 53.9047 43.4167 53.7112 43.1426 53.5646C42.8719 53.4158 42.5273 53.3442 42.11 53.3442C41.7688 53.3442 41.4645 53.4058 41.2027 53.5266C40.9398 53.6497 40.7507 53.8242 40.6332 54.0513C40.518 54.2806 40.4609 54.5939 40.4609 54.9899V56.309C40.4609 56.6468 40.4878 56.9019 40.5381 57.0787C40.5896 57.2554 40.6813 57.4165 40.8156 57.5653C40.9487 57.7119 41.1378 57.8249 41.3783 57.9088C41.6189 57.9938 41.8963 58.0341 42.2107 58.0341C42.5362 58.0341 42.8047 57.9927 43.0207 57.9077C43.2355 57.8226 43.4145 57.6962 43.5521 57.5251C43.693 57.3539 43.7825 57.1939 43.8206 57.0417C43.8575 56.893 43.8788 56.6782 43.8788 56.3962V56.0628H42.4658V56.6614C42.4658 56.8862 42.4467 57.0373 42.4098 57.1167C42.3695 57.195 42.2957 57.2342 42.1838 57.2342C42.091 57.2342 42.0294 57.204 41.9981 57.1447C41.9668 57.0876 41.95 56.9545 41.95 56.7498V55.7708H43.8799V55.7697ZM41.9511 54.7013C41.9511 54.4462 41.9646 54.2896 41.9881 54.2314C42.0127 54.1732 42.0764 54.1442 42.1805 54.1442C42.2644 54.1442 42.3181 54.1788 42.3461 54.246C42.3729 54.3142 42.3874 54.4652 42.3874 54.7002V55.0313H41.9523V54.7013H41.9511Z" fill="white"/>
<path d="M32.3654 62.1699H31.7534V62.2214C31.7534 63.5247 31.5912 64.8561 31.2656 66.212H32.3654V62.1699Z" fill="white"/>
<path d="M59.4467 57.9534V53.4258H58.3436C57.4061 53.4258 56.7986 53.5231 56.5155 53.7211C56.2347 53.9169 56.0938 54.2414 56.0938 54.6911C56.0938 55.0983 56.1475 55.3803 56.2515 55.5391C56.3578 55.698 56.5894 55.7908 56.9462 55.8199C56.6699 55.8882 56.4752 55.9575 56.3623 56.0247C56.2481 56.0929 56.1743 56.188 56.1407 56.3055C56.1083 56.4252 56.0938 56.6198 56.0938 56.8917V57.9534H57.4586V56.706C57.4586 56.499 57.4944 56.3592 57.566 56.2842C57.6399 56.2081 57.7719 56.1723 57.9621 56.1723V57.9534H59.4467ZM57.5672 55.2852C57.4956 55.218 57.4598 55.076 57.4598 54.8578V54.7974C57.4598 54.5848 57.4911 54.4483 57.556 54.3902C57.6197 54.3331 57.7059 54.304 57.8155 54.304H57.9643V55.3847C57.7719 55.387 57.641 55.3523 57.5672 55.2852Z" fill="white"/>
<path d="M51.7442 28.4817H59.411L59.4491 23.9351H45.8203V51.4141H51.7442V28.4817Z" fill="white"/>
<path d="M44.3672 53.4244V58.5976H45.8574V57.5594C45.9872 57.716 46.1315 57.8346 46.2881 57.9152C46.447 57.9946 46.617 58.0326 46.8016 58.0326C47.031 58.0326 47.2301 57.9812 47.3946 57.8805C47.5579 57.7753 47.6653 57.6366 47.7168 57.4643C47.7705 57.2886 47.7973 56.9967 47.7973 56.5849V54.6763C47.7973 54.3161 47.7772 54.061 47.7347 53.9133C47.6933 53.7634 47.587 53.6303 47.4192 53.5151C47.2502 53.3998 47.0533 53.3428 46.8195 53.3428C46.6304 53.3428 46.4559 53.3842 46.2959 53.4625C46.136 53.5419 45.9894 53.6627 45.8585 53.8227L45.8831 53.4233H44.3672V53.4244ZM45.8988 54.2467C45.9267 54.1785 45.9905 54.1449 46.0878 54.1449C46.1908 54.1449 46.2523 54.174 46.2736 54.2344C46.2948 54.2937 46.306 54.4627 46.306 54.7423V56.6845C46.306 56.9262 46.2959 57.0761 46.2724 57.1399C46.2489 57.2025 46.1885 57.2338 46.0923 57.2338C45.9928 57.2338 45.9301 57.1991 45.901 57.1298C45.8719 57.0627 45.8574 56.8926 45.8574 56.6185V54.7412C45.8574 54.4806 45.8708 54.3139 45.8988 54.2467Z" fill="white"/>
<path d="M55.603 57.9533V55.6811C55.603 54.9327 55.5761 54.4371 55.5235 54.1976C55.4721 53.9571 55.3199 53.7557 55.0615 53.5902C54.8075 53.4246 54.4283 53.3418 53.9248 53.3418C53.503 53.3418 53.1607 53.4145 52.8989 53.56C52.6338 53.7065 52.4615 53.8732 52.372 54.0623C52.2858 54.2536 52.2422 54.5232 52.2422 54.8734V55.1777H53.6406V54.7044C53.6406 54.4505 53.6529 54.295 53.6787 54.2346C53.7022 54.1742 53.7648 54.1439 53.8655 54.1439C53.9528 54.1439 54.0165 54.1809 54.0557 54.2536C54.0926 54.3218 54.1116 54.4796 54.1116 54.7145C54.1116 54.9014 54.0949 55.0289 54.0602 55.0904C54.0255 55.1508 53.7637 55.2705 53.2748 55.4473C52.8172 55.6118 52.5319 55.755 52.4156 55.8758C52.3004 55.9989 52.2422 56.2293 52.2422 56.5694V56.9409C52.2422 57.3973 52.3507 57.6949 52.5677 57.8292C52.7859 57.9668 53.0276 58.0316 53.2871 58.0316C53.484 58.0316 53.6574 57.9936 53.8006 57.9119C53.9449 57.8314 54.0613 57.7106 54.153 57.5472V57.9511H55.603V57.9533ZM54.1116 56.7305C54.1116 56.9576 54.0982 57.0986 54.0702 57.1512C54.0423 57.2049 53.9819 57.2317 53.8868 57.2317C53.7894 57.2317 53.7234 57.197 53.6899 57.1288C53.6574 57.0617 53.6406 56.9106 53.6406 56.6768C53.6406 56.471 53.6597 56.3155 53.6988 56.2047C53.7357 56.0962 53.8733 55.9619 54.1116 55.7975V56.7305Z" fill="white"/>
<path d="M51.7785 57.9536V53.4248H50.295V55.0526H49.7591V53.4248H48.2812V57.9536H49.7591V56.2844H50.295V57.9536H51.7785Z" fill="white"/>
<path d="M35.2446 51.4155L35.5891 49.0493C35.588 49.0493 35.5858 49.0493 35.5836 49.0493L36.0669 45.7333H38.8034L39.1312 48.9487C39.13 48.9487 39.1278 48.9498 39.1267 48.9498L39.3773 51.4167H44.3804L44.0347 48.5851C44.0369 48.5839 44.0392 48.5839 44.0414 48.5839L41.5891 28.4507H34.6774L31.3882 49.0012C31.3904 49.0012 31.3927 49.0012 31.3938 49.0012L31.0078 51.4144H35.2446V51.4155ZM37.585 32.1493L37.7361 32.2422L38.4386 42.2618H36.6162L37.585 32.1493Z" fill="white"/>
<path d="M22.9151 57.9536V53.4248H21.0435L20.6105 55.9297L20.1339 53.4248H18.2891V57.9536H19.5656V54.8311L20.2055 57.9536H21.0211L21.6398 54.8311V57.9536H22.9151Z" fill="white"/>
<path d="M16.9045 53.4816C16.664 53.3877 16.3776 53.3418 16.0431 53.3418C15.6448 53.3418 15.317 53.4134 15.0619 53.5566C14.8057 53.6998 14.6289 53.8911 14.5316 54.1272C14.4332 54.3632 14.3828 54.6921 14.3828 55.1117V56.273C14.3828 56.6578 14.4108 56.9453 14.4645 57.1378C14.5182 57.3291 14.6099 57.4924 14.7352 57.6289C14.8628 57.7654 15.0395 57.865 15.2678 57.9354C15.4971 57.9992 15.7757 58.0316 16.1046 58.0316C16.4011 58.0316 16.6606 57.9936 16.8877 57.9164C17.1171 57.8381 17.3017 57.7162 17.4471 57.5517C17.5925 57.385 17.6876 57.2094 17.7324 57.0192C17.7749 56.8279 17.7984 56.5314 17.7984 56.1242V55.0143C17.7984 54.6944 17.7738 54.4561 17.7257 54.2995C17.6776 54.1428 17.5892 53.9907 17.4583 53.8419C17.3274 53.6931 17.1428 53.5734 16.9045 53.4816ZM16.3082 56.7619C16.3082 56.9576 16.2937 57.0852 16.2668 57.1433C16.2388 57.2026 16.1795 57.2329 16.0912 57.2329C16.0061 57.2329 15.948 57.2004 15.9178 57.1366C15.8887 57.0706 15.873 56.9319 15.873 56.7193V54.6754C15.873 54.4438 15.8875 54.2961 15.9178 54.2357C15.948 54.1753 16.0061 54.1451 16.0945 54.1451C16.1829 54.1451 16.2411 54.1764 16.2679 54.2357C16.2948 54.2961 16.3082 54.4438 16.3082 54.6754V56.7619Z" fill="white"/>
<path d="M12.6837 57.9513H14.1179C14.006 57.8025 13.9512 57.5833 13.9512 57.2924V56.498C13.9512 56.1221 13.6973 55.8615 13.1893 55.7116C12.951 55.6478 12.7922 55.6131 12.7071 55.5986C12.8917 55.5941 13.0562 55.5594 13.205 55.4934C13.4332 55.3927 13.5831 55.3144 13.6536 55.2618C13.8494 55.1153 13.9456 54.9329 13.9456 54.7114V54.0815C13.9456 53.7918 14.0016 53.5725 14.1123 53.4248H12.6747C12.5651 53.4707 12.5102 53.6486 12.5102 53.9573V54.7248C12.5102 55.0325 12.3536 55.1857 12.0415 55.1857V53.4259H10.5703V57.9524H12.0415V56.0047C12.3592 56.0047 12.5181 56.1579 12.5181 56.4645V57.4188C12.517 57.6358 12.5729 57.8126 12.6837 57.9513Z" fill="white"/>
<path d="M26.0289 62.3467C25.8185 63.6523 25.6865 64.6066 25.6328 65.2085H26.3421C26.2381 64.4365 26.1329 63.4822 26.0289 62.3467Z" fill="white"/>
<path d="M54.776 63.5048V61.9956H54.6787C54.5064 61.9956 54.3755 62.0303 54.2871 62.0952C54.1988 62.1612 54.1562 62.3033 54.1562 62.5181V62.894C54.1562 63.1468 54.1909 63.3124 54.2648 63.3873C54.3386 63.4668 54.5109 63.5048 54.776 63.5048Z" fill="white"/>
<path d="M29.5692 48.9113V32.5103H24.8827V47.7433H22.3901V35.4213L17.7316 35.4123V47.3663V47.7612H15.2434V46.8148H15.2445V38.2965H10.5558V45.4767H10.5547V51.414H29.5692V48.9113Z" fill="white"/>
<path d="M28.9478 54.934V53.4248H27.4688V57.9536H29.1905C29.6984 57.9536 30.0632 57.9301 30.2869 57.8864C30.5107 57.8406 30.674 57.7287 30.778 57.5497C30.8843 57.3696 30.9369 57.072 30.9369 56.6603V56.1982C30.9369 55.8145 30.8821 55.5326 30.7702 55.3558C30.6595 55.179 30.4883 55.0638 30.2545 55.0112C30.0206 54.9597 29.6671 54.934 29.1916 54.934H28.9478ZM29.4523 56.3101V56.4913C29.4523 56.7363 29.4176 56.884 29.346 56.9288C29.2778 56.9769 29.1435 56.9993 28.9466 56.9993V55.7977C29.1827 55.8055 29.3259 55.8346 29.3762 55.8838C29.4266 55.9353 29.4523 56.0774 29.4523 56.3101Z" fill="white"/>
<path d="M26.9336 57.9536V53.4248H23.4453V57.9536H24.9232V54.3735H25.4513V57.9536H26.9336Z" fill="white"/>
<path d="M33.3864 56.9467C33.4077 57.1156 33.458 57.2711 33.5375 57.4087C33.6158 57.5486 33.7277 57.6627 33.8686 57.7533C34.0118 57.8462 34.1539 57.9021 34.2938 57.9245C34.437 57.9457 34.6126 57.9569 34.8285 57.9569C35.2604 57.9569 35.5893 57.9289 35.8153 57.873C36.0413 57.8159 36.2348 57.713 36.3926 57.5631C36.5514 57.4121 36.6532 57.2387 36.6991 57.0384C36.745 56.8404 36.7673 56.5338 36.7673 56.1199V55.019C36.7673 54.7326 36.7517 54.5122 36.7204 54.3545C36.6901 54.1934 36.6006 54.0345 36.453 53.8768C36.3075 53.719 36.1106 53.5982 35.8679 53.5177C35.6228 53.4382 35.3398 53.3979 35.0165 53.3979C34.7066 53.3979 34.4392 53.4382 34.211 53.5177C33.985 53.5982 33.8037 53.7213 33.6639 53.8857C33.5252 54.0479 33.4379 54.2281 33.4043 54.4216C33.3697 54.6174 33.354 54.849 33.354 55.1175V55.179H32.9076V53.4248H31.4141V57.9524H32.8987V56.1266H33.354V56.2743C33.354 56.5506 33.3652 56.7755 33.3864 56.9467ZM34.8397 54.6745C34.8397 54.4686 34.8509 54.3299 34.8744 54.256C34.8979 54.1811 34.9594 54.143 35.0612 54.143C35.1619 54.143 35.2234 54.18 35.2458 54.2527C35.2671 54.3209 35.2783 54.4641 35.2783 54.6733V56.9858C35.2783 57.0563 35.2592 57.1145 35.2179 57.1603C35.1776 57.2073 35.1261 57.2308 35.0612 57.2308C34.9124 57.2308 34.8397 57.0999 34.8397 56.8393V54.6745Z" fill="white"/>
<path d="M15.5757 62.3467C15.3654 63.6523 15.2334 64.6066 15.1797 65.2085H15.8879C15.7838 64.4365 15.6798 63.4822 15.5757 62.3467Z" fill="white"/>
<path d="M11.5741 38.0327L12.3427 38.0528L12.43 37.876C13.1035 37.9991 13.8665 38.2038 14.4572 37.7519C14.3912 37.3748 13.8508 37.5303 13.5924 37.3446C13.4671 37.2697 13.3105 37.1936 13.2277 37.0672L13.1035 37.0515C13.3071 36.2561 13.7333 35.5647 14.1104 34.861C15.1665 33.6102 15.162 31.8828 15.3947 30.2617C15.4327 30.1946 15.4988 30.1812 15.5648 30.189C15.6118 30.1845 15.6699 30.1857 15.7326 30.1879C15.9373 30.1924 16.1801 30.1968 16.1297 29.9753C17.1042 30.076 17.8929 30.6007 18.8562 30.7607C18.8338 30.8625 18.7678 30.9431 18.7376 31.0404C18.7141 31.2955 18.6973 31.5416 18.6772 31.7855L18.6682 31.9734C18.5977 33.222 18.5809 33.9425 18.7868 35.1474H19.4715L19.5476 34.974C20.1964 34.946 20.9538 35.0478 21.568 34.6439C21.464 34.2792 20.9382 34.494 20.6563 34.3296C20.4996 34.2456 20.2736 34.1606 20.2143 33.9704C20.1897 32.6883 20.3161 31.3592 20.5858 30.1129C19.6606 28.7883 18.3068 28.4717 17.1109 27.796C17.1624 27.6517 17.1176 27.6875 17.2004 27.5599C16.8782 27.5499 16.6914 27.2836 16.4117 27.3653C16.3636 27.0475 16.3389 26.6627 16.4217 26.3338C16.509 26.4087 16.6119 26.4434 16.6735 26.5474C17.2933 26.7936 17.9846 26.8786 18.5832 27.1952L18.817 27.0475C18.9188 27.08 19.0665 27.1684 19.0072 27.2836C19.024 27.2579 19.0508 27.2623 19.0777 27.2657C19.0978 27.2679 19.118 27.2713 19.1359 27.2623C19.175 27.2187 19.2265 27.1874 19.2108 27.118C19.3674 26.9502 19.4849 26.6627 19.4021 26.4087C19.3518 26.289 19.241 26.2957 19.1325 26.3013C19.0531 26.3058 18.9759 26.3103 18.9211 26.2689V26.195L16.9587 25.3403C16.8793 24.9129 16.6858 24.5437 16.5202 24.1645C16.4911 23.2974 15.7617 22.6955 15.7986 21.843C15.9127 21.6842 16.0391 21.7088 16.1689 21.7345C16.2405 21.748 16.3143 21.7625 16.3859 21.7424C16.4844 21.6696 16.5392 21.6137 16.5 21.4683C16.5426 21.4403 16.5537 21.3553 16.6242 21.3474C16.6455 21.1505 16.6119 20.929 16.8547 20.882C16.7809 20.7198 16.6611 20.5788 16.6455 20.3797C16.801 20.0911 16.6119 19.704 16.6365 19.4008C16.3401 19.2766 16.0167 19.0327 15.6811 19.0327C15.5357 19.0327 15.388 19.0786 15.2392 19.2028C14.9673 19.4892 14.7906 19.8035 14.7906 20.1157C14.7738 20.7243 14.8655 20.7467 14.908 21.1584C14.8163 21.24 14.8096 21.466 14.6373 21.3732C14.4024 21.6551 14.1305 21.9739 13.8732 22.2659C13.08 22.9461 11.9735 23.5749 11.8068 24.7261C11.8482 25.6021 11.8404 26.4501 11.7845 27.3339C11.8147 27.3384 11.8482 27.3362 11.8818 27.3351C11.9433 27.3317 12.0037 27.3272 12.044 27.3641C12.0306 27.3809 12.025 27.3932 12.016 27.4067H12.0105C12.0105 27.4548 12.0105 27.4995 12.0015 27.5476H12.0675C12.1861 27.824 12.0619 28.2122 12.1279 28.5075C12.1962 28.6082 12.1637 28.8174 12.3148 28.8286C12.3148 28.7906 12.308 28.7447 12.3427 28.7178L12.4691 28.9673C12.5508 29.0132 12.562 28.9024 12.6012 28.8644C12.6605 28.8968 12.6179 28.9852 12.6291 29.0423C12.6605 29.0826 12.6918 29.1351 12.76 29.1161L12.8204 28.3666C12.9032 28.5892 12.8909 28.8644 12.9178 29.1161H12.9849C13.1024 29.0143 13.0431 28.8286 13.0621 28.682C13.0308 28.239 13.1024 27.862 12.9245 27.4771C12.9849 27.429 13.0084 27.3731 12.9994 27.2892C13.042 27.2802 13.0531 27.212 13.1035 27.2254C13.2534 26.4412 13.2277 25.5383 13.2747 24.763L13.5476 24.5516C13.7624 25.6759 13.5275 26.8305 13.2981 27.9358C13.3619 28.1372 13.4223 28.3845 13.3362 28.616L13.3138 29.0423H13.3474L13.3608 28.8499C13.3608 29.2694 13.2019 29.7863 13.5006 30.0022C13.4604 31.0874 13.4212 32.1659 13.2377 33.1739C12.543 34.7222 11.4992 36.265 11.5741 38.0327Z" fill="white"/>
</svg>
