<svg width="86" height="75" viewBox="0 0 86 75" fill="none" xmlns="http://www.w3.org/2000/svg">
<path d="M84.8317 33.9779C82.2538 13.8256 60.5591 -2.38276 40.5639 0.289115C40.0853 0.353088 39.6123 0.429945 39.142 0.513043C39.0759 0.410754 38.9799 0.33126 38.8671 0.285325C38.7543 0.239389 38.6301 0.22923 38.5113 0.256222C35.5725 0.847243 32.6519 1.5125 29.826 2.36767C17.8953 4.6551 7.03773 11.3058 2.24848 23.1203C-5.41096 42.0153 7.52653 64.6643 25.5144 71.8647C25.934 72.0326 26.357 72.1906 26.7819 72.3433C32.241 74.771 38.2885 75.5581 44.1872 74.6087C53.8417 73.922 63.0723 70.3728 70.6998 64.4145C73.2642 62.3852 75.5046 59.9774 77.3441 57.2737C82.8522 51.1097 86.0124 43.2081 84.8317 33.9779ZM83.8232 35.8395C84.2229 40.8116 83.1864 45.7939 80.8371 50.1941C81.3291 48.7172 81.6923 47.2005 81.9225 45.661C82.7878 39.7961 81.6661 33.8478 79.3547 28.3932C78.5154 24.1886 76.7721 20.2167 74.2455 16.7527C68.5665 8.95132 59.5597 4.50228 50.3012 2.55319C47.0894 1.88432 43.8216 1.51966 40.5413 1.46403C60.6319 -1.25596 82.0855 15.5241 83.8232 35.8395ZM70.5047 61.9793C67.844 63.9125 64.9697 65.5333 61.9386 66.8095C70.7845 60.1682 77.4343 50.2369 79.4143 39.6967C79.7783 37.7574 79.9499 35.7869 79.9265 33.8139C81.2432 38.9383 81.379 44.3191 79.8465 49.4554C79.0432 52.0932 77.8162 54.5828 76.2137 56.8268C74.4938 58.7368 72.5805 60.4636 70.5047 61.9793H70.5047ZM40.9161 73.506C36.0167 73.584 31.1486 72.712 26.581 70.9381C23.2772 69.2918 20.3105 67.0419 17.8341 64.3046C18.0147 64.4456 18.1896 64.5931 18.3735 64.7303C27.0823 71.2259 38.3232 72.8837 48.9099 71.5287C50.0227 71.3863 51.1373 71.2027 52.2538 70.9779C49.8013 72.035 47.2386 72.8156 44.6132 73.3049C43.3808 73.4148 42.147 73.4855 40.916 73.506H40.9161ZM38.5463 70.6431C29.5687 70.0289 21.0968 66.5459 14.8872 59.959C14.546 59.5971 14.2175 59.2263 13.8971 58.85C13.7273 58.5487 13.5622 58.2444 13.4019 57.9371C4.75175 41.2655 10.5195 18.9494 25.2655 7.85942C31.7672 4.80423 38.6441 2.89412 46.1621 3.63269C57.5743 4.75386 67.6606 12.1251 74.1055 21.3224C75.77 23.6957 77.1713 26.2431 78.2846 28.9197C80.5744 41.9733 72.9842 55.9232 62.7898 64.4594C60.9417 66.0083 58.9691 67.4025 56.8922 68.6278C50.9451 70.3835 44.7327 71.0659 38.5462 70.6431H38.5463ZM34.7029 2.84013C35.4784 2.77249 36.2554 2.72309 37.0337 2.69193C35.3533 2.97667 33.6931 3.36974 32.0634 3.86866C32.7603 3.56171 33.4693 3.27502 34.1929 3.01401C34.3624 2.9529 34.5329 2.8981 34.7029 2.84013ZM24.7967 6.7201C21.3438 8.39344 17.9894 10.2629 14.75 12.3194C14.8287 12.231 14.9019 12.1383 14.9817 12.0507C19.0259 7.61299 24.4137 5.14849 30.0715 3.49053C28.2209 4.40842 26.4557 5.48921 24.7967 6.7201ZM12.654 14.9432C12.7786 14.9514 12.9025 14.9177 13.0058 14.8475C15.5621 13.2144 18.1542 11.6123 20.8009 10.1488C12.1995 18.653 7.52987 31.3357 8.31628 43.6364C8.53299 47.0017 9.18798 50.3243 10.2647 53.5201C7.59099 48.4174 6.1623 42.7545 6.09528 36.9941C5.93591 29.2075 8.12031 21.284 12.6539 14.9432H12.654ZM60.8238 7.35363C65.8477 9.75156 70.2093 13.3414 73.5285 17.8106C74.5859 19.2589 75.4988 20.8074 76.254 22.4339C75.5605 21.3158 74.8243 20.232 74.0508 19.1918C70.4936 14.3865 65.9926 10.3582 60.8238 7.35363H60.8238ZM1.3636 34.6348C1.25168 23.3303 7.6118 13.5875 17.2674 8.0716C18.0267 7.63783 18.7991 7.23282 19.5846 6.85658C16.7088 8.64173 14.1751 10.9265 12.1032 13.603C6.02434 21.4861 3.99449 32.1728 5.25154 41.9008C6.09353 48.3727 8.74494 54.4756 12.9009 59.5077C14.2911 62.0058 16.0183 64.3007 18.034 66.328C16.817 65.4677 15.6488 64.5404 14.5348 63.5504C10.4756 59.89 7.21194 55.4346 4.94622 50.4605C2.6805 45.4864 1.46107 40.0998 1.3636 34.6348ZM54.0356 71.5612C55.3846 70.9337 56.6999 70.2362 57.9762 69.4716C61.536 68.3126 64.9512 66.7496 68.1552 64.8132C66.9729 65.6632 65.7482 66.4527 64.486 67.1786C61.1936 69.0589 57.6843 70.5306 54.0356 71.5612H54.0356Z" fill="#4744C9"/>
<g clip-path="url(#clip0_4008_6509)">
<path fill-rule="evenodd" clip-rule="evenodd" d="M64.1773 45.2804C61.5274 45.3058 58.8776 45.3333 56.2278 45.3629C56.2274 45.3346 56.2249 45.3063 56.2202 45.2784C55.9755 43.8693 55.6604 42.4706 55.3766 41.067C55.2937 40.128 55.008 39.2181 54.5393 38.4001C53.4251 36.885 51.195 36.1281 49.422 35.8008C49.3781 35.7112 49.3119 35.6343 49.2297 35.5775C49.1476 35.5207 49.0523 35.486 48.9529 35.4765C48.8535 35.4671 48.7533 35.4833 48.662 35.5237C48.5707 35.564 48.4912 35.627 48.4312 35.7068C47.8819 35.5312 47.3731 35.2479 46.9344 34.8737C46.3787 34.5033 45.9423 33.9797 45.678 33.3664C45.6586 33.3227 45.6343 33.2813 45.6056 33.2431C47.8935 31.5538 49.0304 27.7613 49.5053 25.3109C49.8969 23.328 49.9539 21.2934 49.674 19.2917C49.4111 17.4713 48.5452 16.6633 46.8874 15.9547C44.0672 14.7489 38.4919 14.086 37.1178 17.7416C37.0826 17.8303 37.0736 17.9273 37.0919 18.0209C37.1103 18.1146 37.1552 18.201 37.2214 18.2698C35.9827 21.5088 36.5504 25.2958 37.4431 28.5644C37.8975 30.3393 38.8866 31.9317 40.2763 33.1256C40.2541 33.6751 40.0474 34.2012 39.6896 34.6188C39.2724 35.0393 38.7941 35.3942 38.2708 35.6717C37.832 35.0378 37.182 34.5807 36.4371 34.3822C34.4558 33.7632 32.5329 35.6758 31.0303 36.8044C30.9396 36.7103 30.8204 36.6488 30.6911 36.6296C30.5618 36.6104 30.4298 36.6346 30.3157 36.6984C30.2016 36.7621 30.1119 36.8619 30.0605 36.9821C30.0092 37.1023 29.9991 37.2361 30.0318 37.3626C30.1962 37.9363 30.4082 38.4953 30.6655 39.0338C30.0745 39.3329 29.4897 39.6545 28.914 39.9927C28.9061 39.9102 28.9022 39.8283 28.8968 39.7443C28.8333 38.9183 27.5399 38.94 27.603 39.7731C27.6267 40.0937 27.654 40.4151 27.6796 40.7364C26.8611 41.2395 26.049 41.7519 25.239 42.2454C25.1292 42.3187 25.0522 42.4316 25.024 42.5606C24.9959 42.6895 25.0189 42.8243 25.0881 42.9366C25.1574 43.049 25.2676 43.13 25.3954 43.1627C25.5233 43.1954 25.6588 43.1773 25.7735 43.112C26.4282 42.715 27.1016 42.3334 27.7756 41.9502C27.8725 43.1646 27.971 44.3771 28.0711 45.5878C28.0746 45.6288 28.0818 45.6694 28.0925 45.7092C26.2521 45.7343 24.4106 45.7592 22.568 45.7839C22.4787 45.7864 22.3912 45.8094 22.3122 45.8511C22.2332 45.8927 22.1647 45.9519 22.1122 46.0241C22.0596 46.0962 22.0242 46.1795 22.0088 46.2675C21.9934 46.3555 21.9983 46.4458 22.0232 46.5316C22.3394 47.4964 22.5116 48.5026 22.5343 49.5176C22.5475 50.163 22.4849 50.2982 22.9924 50.6704C24.182 51.5372 26.2035 51.1592 27.5603 51.1536C27.8083 51.1536 28.0551 51.1472 28.3037 51.1472C28.5809 53.2777 28.6843 55.4271 28.6129 57.5743C28.5381 58.9481 29.0783 59.7235 30.4798 59.9035C32.4638 60.0275 34.4547 59.9822 36.431 59.7682C38.705 59.6586 40.9813 59.506 43.2568 59.4259C45.4342 59.3291 47.6151 59.3422 49.7912 59.4652C51.9378 59.5995 54.1911 60.0403 56.3374 59.6977C56.6016 59.6934 56.8619 59.6332 57.1012 59.5212C57.3406 59.4091 57.5534 59.2477 57.7259 59.0475C57.8984 58.8474 58.0266 58.6129 58.102 58.3597C58.1774 58.1064 58.1984 57.8401 58.1636 57.5782C58.2083 55.2888 57.9793 52.9541 57.8874 50.6642C57.8857 50.5802 57.8637 50.4978 57.8233 50.424C59.8287 50.3356 61.8338 50.2396 63.8386 50.1359C63.9851 50.1305 64.1238 50.0682 64.2251 49.9622C64.3265 49.8563 64.3826 49.715 64.3814 49.5684L64.2744 46.4876C64.4232 46.461 64.5568 46.3799 64.649 46.2603C64.7413 46.1406 64.7857 45.9908 64.7737 45.8401C64.7616 45.6895 64.6938 45.5487 64.5836 45.4453C64.4734 45.3419 64.3287 45.2832 64.1775 45.2806L64.1773 45.2804ZM54.4223 41.8648C54.0639 42.4063 53.7002 42.9446 53.3311 43.4795C52.9136 43.9864 52.5574 44.5409 52.2701 45.1314C52.2326 45.2189 52.2264 45.3167 52.2525 45.4082L50.0721 45.4342C51.4976 43.5858 52.7342 41.5992 53.7633 39.5041C53.8392 39.6484 53.9031 39.7988 53.9545 39.9535C54.155 40.5789 54.3113 41.2175 54.4223 41.8648ZM53.3021 45.3961C53.6531 44.9515 53.9686 44.48 54.2456 43.986C54.3843 43.7725 54.522 43.5585 54.6587 43.344C54.7603 44.0304 54.8599 44.7146 54.9935 45.3763L53.3021 45.3961ZM53.1114 38.6482C52.5087 39.6259 51.8997 40.5999 51.2739 41.5634C50.4945 42.6164 49.7915 43.7238 49.1703 44.8772C49.1288 44.9687 49.1129 45.0697 49.1242 45.1695C49.1355 45.2694 49.1736 45.3643 49.2345 45.4442L47.1717 45.4688C48.8265 43.0202 50.1297 40.2439 51.5389 37.6405C52.1178 37.8821 52.65 38.2232 53.1114 38.6482ZM50.6454 37.307C49.1026 39.8776 47.3485 42.4229 46.0573 45.1153C45.999 45.2285 45.9784 45.3575 45.9985 45.4833L45.4624 45.4896C45.5633 45.4363 45.6453 45.3532 45.6973 45.2516C47.137 42.6067 48.3112 39.8258 49.2025 36.9495L49.2023 36.9492C49.69 37.0399 50.1718 37.1594 50.6454 37.307ZM39.0647 42.1358C38.2633 43.0921 37.7026 44.2264 37.4294 45.4439C37.4251 45.4924 37.4295 45.5413 37.4424 45.5883L35.2196 45.6165C35.6639 44.979 36.0737 44.3181 36.4473 43.6368C37.0935 42.5709 37.7155 41.4913 38.3134 40.3979C38.6174 40.9237 38.9389 41.4406 39.2572 41.959C39.1804 42.0025 39.1146 42.063 39.0647 42.1358ZM38.52 45.5746C38.7658 45.1572 38.9111 44.6814 39.1214 44.2421C39.338 43.7916 39.5775 43.3525 39.839 42.9264C40.3402 43.7553 40.7582 44.6317 41.087 45.5428L41.0863 45.5424L38.52 45.5746ZM37.5606 39.6838C36.9213 40.7698 36.2642 41.8448 35.5801 42.903C34.9152 43.752 34.3394 44.6672 33.862 45.6341L32.6066 45.6505L32.5911 45.3013C32.6613 45.2862 32.7276 45.2567 32.7857 45.2146C32.8439 45.1724 32.8927 45.1187 32.929 45.0567C33.5495 44.0331 33.9565 42.8769 34.5511 41.8306C35.2043 40.6904 35.9439 39.602 36.7635 38.5749C36.8159 38.5103 36.8508 38.4332 36.8649 38.3512C36.9809 38.2787 37.0961 38.2048 37.2082 38.128C37.3812 38.5855 37.5803 39.0326 37.8045 39.4672C37.701 39.5097 37.615 39.586 37.5606 39.6838ZM34.4414 39.9912C33.6809 40.9815 33.0281 42.05 32.4939 43.1787C32.4636 42.3912 32.446 41.6035 32.4604 40.8109C32.6149 40.8308 32.7717 40.8207 32.9224 40.7811C33.4706 40.6076 33.9846 40.3403 34.4414 39.9912ZM48.5283 19.0362C48.3743 19.3781 48.207 19.7129 48.0216 20.0384C47.8959 19.8467 47.7387 19.6775 47.5567 19.538C47.2541 19.2866 46.8718 19.1514 46.4784 19.1566C46.5556 19.0216 46.6306 18.8863 46.7088 18.7586L47.4826 17.4957C47.9273 17.8053 48.2639 18.2464 48.4451 18.7571C48.4751 18.8484 48.5028 18.9415 48.5283 19.0362ZM47.2962 21.2426C47.2867 21.2715 47.2782 21.3003 47.2706 21.3295C47.2506 21.4089 47.253 21.4922 47.2776 21.5702C47.3022 21.6483 47.3479 21.718 47.4098 21.7715C47.4745 22.2672 47.4703 22.8174 47.5587 23.1392C47.6945 23.7308 48.0128 24.2647 48.4685 24.6655C48.1634 26.4386 47.5851 28.1537 46.7542 29.7496C45.9069 31.3621 44.6762 33.2608 42.5623 32.8865L42.5619 32.886C40.5342 32.5288 39.3216 30.7285 38.6891 28.9162C38.3004 27.8081 37.9951 26.6724 37.7757 25.5187C38.2152 25.3005 38.5774 24.9532 38.8139 24.5233C39.0503 24.0934 39.1497 23.6015 39.0987 23.1135C39.1314 21.941 39.4568 20.1353 40.7949 21.0293L40.8353 21.056C40.8713 21.088 40.9117 21.1146 40.9554 21.135C41.3807 21.4306 41.872 21.6174 42.3863 21.679C43.0431 21.7654 43.7111 21.6944 44.3351 21.4719C45.1372 21.1902 46.1183 20.1844 47.0069 20.8063C47.1469 20.9177 47.2482 21.0704 47.2962 21.2426ZM48.4639 21.2731C48.5704 21.1069 48.6643 20.9313 48.7576 20.7708L48.776 20.7391C48.8025 21.3861 48.7867 22.0342 48.7286 22.6791C48.6028 22.2318 48.5528 21.7449 48.4639 21.2731ZM46.5608 16.9702L45.7478 18.2268C45.3984 18.6476 45.1502 19.143 45.0224 19.6748C44.5177 20.0087 43.9599 20.2542 43.3728 20.4007C42.9832 20.4996 42.5708 20.4481 42.2175 20.2564C42.4563 19.8872 42.6678 19.4924 42.9027 19.142C43.4039 18.3936 43.9304 17.662 44.4691 16.9403C44.5285 16.8625 44.5657 16.7701 44.5767 16.6729C44.5878 16.5756 44.5723 16.4772 44.5319 16.3881C45.2291 16.5001 45.9102 16.6956 46.5607 16.9702L46.5608 16.9702ZM43.6899 16.2746C43.1559 16.9576 42.6353 17.651 42.1284 18.3548C41.8417 18.7521 41.5063 19.1552 41.2235 19.5815C41.133 19.5217 41.0342 19.4755 40.9302 19.4443C40.3376 19.3503 39.7313 19.4807 39.2297 19.8101C39.2085 19.8228 39.1875 19.8355 39.1668 19.8486C39.2955 19.6357 39.4251 19.4257 39.5594 19.2233C40.227 18.2183 40.9165 17.2286 41.6281 16.2543C42.0156 16.2208 42.4047 16.2092 42.7935 16.2194C43.0641 16.225 43.3673 16.2424 43.6899 16.2746ZM40.2172 16.5354C39.7223 17.1952 39.2365 17.8618 38.7599 18.5354C38.4215 19.0148 38.0481 19.4978 37.7082 19.9986C37.8597 19.2585 38.1052 18.5409 38.4386 17.863H38.4383C38.8557 17.2241 39.4859 16.7538 40.2172 16.5354ZM37.4738 22.1236C37.5498 22.1037 37.6189 22.0635 37.6736 22.0072C37.7876 21.8885 37.896 21.7637 38.0003 21.6343C37.9266 22.5375 38.1891 23.8002 37.5935 24.3308C37.5007 23.5989 37.4607 22.8613 37.4738 22.1236ZM44.7892 33.7283C44.9775 34.3466 45.3632 34.8861 45.8873 35.2644C45.5637 35.7024 45.2805 36.1761 44.9836 36.6369C44.8846 36.5409 44.7532 36.4856 44.6153 36.4821C43.3904 36.4345 42.1639 36.5144 40.9556 36.7205C40.6872 36.5728 40.4273 36.4103 40.1769 36.2338C40.0196 36.1219 39.8773 35.9982 39.7247 35.8914C40.1108 35.6522 40.4439 35.3367 40.7037 34.9641C40.9634 34.5915 41.1443 34.1698 41.2352 33.7248C42.1725 34.1699 43.2429 34.2461 44.2337 33.9383C44.4236 33.8811 44.6092 33.8109 44.7894 33.7283H44.7892ZM46.6953 35.8453C47.1262 36.1479 47.6043 36.3768 48.1102 36.5228C47.8695 37.198 47.6268 37.8691 47.3762 38.5369C47.112 38.302 46.8054 38.0984 46.5334 37.8913C46.2589 37.6833 45.981 37.484 45.7015 37.2823C46.0789 36.837 46.4118 36.3559 46.6955 35.8458L46.6953 35.8453ZM45.1372 38.1003C45.4343 38.3188 45.7291 38.5442 46.0184 38.7716C46.3277 39.0457 46.654 39.3001 46.9953 39.5331C46.4488 40.9354 45.8677 42.3217 45.2021 43.6837C45.0222 43.0078 44.8087 42.3429 44.6388 41.6677C44.4836 41.0695 44.4477 40.4466 44.5333 39.8345C44.6189 39.2224 44.8241 38.6332 45.1374 38.1005L45.1372 38.1003ZM41.7536 37.746C42.572 37.6331 43.3978 37.5816 44.2239 37.5917C43.5976 38.5857 43.3003 39.7517 43.3742 40.9242C43.587 42.3603 43.9693 43.7661 44.5133 45.1121C44.5409 45.1995 44.5927 45.2774 44.6627 45.3366C44.7327 45.3958 44.818 45.434 44.9088 45.4469C44.9391 45.4658 44.9713 45.4815 45.0048 45.4938C44.053 45.5074 43.1022 45.5172 42.1535 45.5311C42.1521 45.4768 42.1435 45.423 42.1279 45.371C42.008 45.0179 41.8732 44.6757 41.7226 44.3395C41.9525 43.75 42.1473 43.1473 42.3062 42.5348C42.6022 41.7862 42.8453 41.0178 43.0335 40.2352C43.1806 39.1937 42.2412 38.5899 41.7538 37.7465L41.7536 37.746ZM40.8242 38.4382C41.2372 39.1627 41.7834 39.8679 41.695 40.5604C41.5354 41.3678 41.3004 42.1586 40.9929 42.9221C40.4254 41.9266 39.7877 40.9655 39.2139 39.9714C39.2206 39.9687 39.227 39.9654 39.2332 39.9617C39.6114 39.6533 39.966 39.3171 40.2941 38.9559C40.4699 38.7828 40.6465 38.6116 40.8245 38.4387L40.8242 38.4382ZM38.1046 37.3013C38.2695 37.0877 38.3827 36.8389 38.4352 36.5742C38.5536 36.5987 38.6769 36.577 38.7797 36.5134C38.7892 36.509 38.799 36.5017 38.8066 36.4973C39.0303 36.7636 39.3061 36.9815 39.617 37.1375C39.8436 37.2745 40.0768 37.4059 40.3115 37.5309L39.6102 38.196C39.3174 38.4739 38.9811 38.7383 38.7125 39.0413C38.4395 38.5151 38.2081 37.9682 38.0203 37.4059C38.0477 37.3705 38.0789 37.337 38.1046 37.3016V37.3013ZM34.3037 35.9691C34.9925 35.5347 36.0491 35.0903 36.7442 35.8572C36.8969 35.9616 37.0517 36.0651 37.2043 36.1688C37.1214 36.4243 36.9868 36.6599 36.809 36.8612C36.6312 37.0625 36.414 37.2251 36.1707 37.3389C35.3466 37.9459 34.4211 38.4504 33.5562 38.9966C32.8335 39.453 32.6601 39.6993 32.0572 38.9615C31.8153 38.6535 31.6195 38.3121 31.4758 37.9478C32.4208 37.2995 33.333 36.5815 34.3039 35.9691L34.3037 35.9691ZM31.1738 39.8985C31.2559 40.0087 31.3436 40.1146 31.4366 40.2159C31.4166 40.272 31.4041 40.3306 31.3994 40.39C31.286 42.1482 31.3253 43.913 31.5168 45.6645C30.7751 45.6735 30.0329 45.6825 29.2902 45.6913C29.2962 45.6474 29.2973 45.6029 29.2936 45.5588C29.1954 44.1237 29.1017 42.6855 29.0003 41.2472C29.7395 40.8185 30.4723 40.3746 31.1743 39.8989L31.1738 39.8985ZM57.0316 57.3157C56.9129 58.1923 56.7015 58.5552 55.7701 58.6389C54.9566 58.6996 54.1397 58.701 53.3259 58.6431C49.8462 58.4485 46.4408 58.1949 42.9481 58.3239C39.5325 58.4509 36.1236 58.741 32.7048 58.7739C31.834 58.7812 30.053 59.1207 29.7888 57.9442C29.7681 57.1567 29.8231 56.369 29.9529 55.592C30.007 54.0931 29.8559 52.5938 29.5036 51.1358C32.8552 51.1104 36.2068 51.0655 39.5584 51.0012C45.3257 50.8887 51.091 50.709 56.8546 50.4623C56.8261 50.5338 56.8135 50.6106 56.8175 50.6874C56.8714 52.4175 56.9273 54.1463 56.9852 55.8738C57.0373 56.3526 57.053 56.8347 57.0321 57.316L57.0316 57.3157ZM41.5841 49.8401C37.9729 49.9203 34.3628 49.9731 30.7538 49.9986C28.9083 50.0121 27.0332 50.1166 25.1921 50.0209C24.685 49.9952 23.9356 50.1339 23.7044 49.6443C23.6296 49.2433 23.6034 48.8347 23.6263 48.4273C23.5705 47.9246 23.477 47.4268 23.3466 46.9381C36.6185 46.815 49.8907 46.6715 63.1634 46.5074C63.1908 47.3571 63.222 48.2022 63.2518 49.05C56.0322 49.4116 48.8097 49.675 41.5842 49.8401H41.5841Z" fill="#4744C9"/>
</g>
<defs>
<clipPath id="clip0_4008_6509">
<rect width="42.7778" height="45" fill="white" transform="translate(22 15)"/>
</clipPath>
</defs>
</svg>
