<svg width="68" height="98" viewBox="0 0 68 98" fill="none" xmlns="http://www.w3.org/2000/svg">
<g clip-path="url(#clip0_4008_6356)">
<path d="M31.9499 6.367L31.9498 6.36156C17.5709 17.4454 15.2924 36.7139 20.6495 53.2288C26.3978 70.9498 42.5484 78.9457 60.191 79.7515C61.6143 79.8165 61.9076 77.6113 60.473 77.5458C43.7687 76.7828 29.2296 69.8 23.0757 53.4372C17.2203 37.868 19.6757 18.6307 33.3101 8.12068C33.4438 8.01478 33.5517 7.87978 33.6254 7.72595C33.6991 7.57212 33.7368 7.40352 33.7355 7.23294C33.7343 7.06236 33.6942 6.89432 33.6183 6.74157C33.5423 6.58883 33.4326 6.4554 33.2973 6.35144L33.2702 6.3316C33.0809 6.1819 32.8449 6.10345 32.6036 6.10992C32.3623 6.11639 32.1309 6.20738 31.9499 6.367Z" fill="#A8B3C1"/>
<path d="M31.2782 6.07629C16.9798 18.3611 10.5977 39.3898 18.1165 57.0774C21.908 65.8479 28.2856 73.2526 36.3972 78.3023C44.606 83.356 52.8318 83.3226 62.0772 82.296C63.5065 82.1374 63.213 79.9326 61.7905 80.0905C57.5233 80.5643 53.34 81.1825 49.0426 80.665C44.6848 80.1401 40.4539 78.1989 36.7576 75.9232C29.3761 71.3788 23.7678 64.0139 20.1745 56.2334C12.9348 40.5571 18.7838 21.1506 30.8188 9.50617C30.9749 9.63485 31.1614 9.72122 31.3605 9.75698C31.5596 9.79275 31.7645 9.7767 31.9556 9.71038C32.1466 9.64406 32.3175 9.52971 32.4516 9.37831C32.5857 9.22691 32.6786 9.04355 32.7214 8.84587C32.8347 8.26291 32.9479 7.67991 33.0612 7.09684C33.0855 6.87982 33.0458 6.66043 32.9469 6.46571C32.8481 6.27099 32.6944 6.10944 32.5049 6.00095C32.3153 5.89247 32.0982 5.84181 31.8802 5.85519C31.6623 5.86858 31.453 5.94544 31.2782 6.07629Z" fill="#A8B3C1"/>
<path d="M25.2406 14.7843C22.7799 18.4516 21.0263 22.5466 20.0703 26.8582C18.2102 36.0744 19.688 44.3775 22.5207 53.1707C25.2006 61.4899 30.2663 68.3375 36.5646 74.3152C42.9607 80.3859 50.9754 82.6789 58.9475 85.7357C59.0788 85.9668 59.2838 86.1472 59.5297 86.2481C59.7755 86.349 60.0481 86.3647 60.3039 86.2925L60.5682 86.3693C61.9155 86.82 62.7451 84.8443 61.4006 84.3069C54.5084 81.5519 47.2937 79.7823 41.2269 75.3143C34.8337 70.5596 29.7205 64.2926 26.3459 57.0752C22.8131 49.2251 20.8767 40.6493 21.5765 32.0577C21.87 28.0111 22.9045 24.0529 24.6283 20.3802C26.0876 17.2945 29.3287 10.3991 32.9477 9.35278C34.3267 8.95402 33.4644 6.90138 32.1036 7.29485C28.8522 8.23484 26.9334 12.1442 25.2406 14.7843Z" fill="#A8B3C1"/>
<path d="M60.1803 82.4528L60.221 82.5501C60.0818 83.083 60.0101 83.63 59.8668 84.1637C59.8038 84.3621 59.752 84.5638 59.7116 84.768C59.5495 84.9569 59.4545 85.1942 59.4416 85.4428C59.4287 85.6913 59.4987 85.9372 59.6404 86.1418C59.7822 86.3464 59.9878 86.4983 60.225 86.5735C60.4623 86.6488 60.7179 86.6433 60.9516 86.5578L61.4076 86.3672C61.6786 86.2529 61.8939 86.0369 62.0074 85.7656C62.1209 85.4943 62.1234 85.1893 62.0145 84.9161L61.9738 84.8188C62.1131 84.2859 62.1847 83.7389 62.3281 83.2052C62.4381 82.7954 62.5978 82.4685 62.4184 82.0394L62.2382 81.6087C62.1198 81.3454 61.9037 81.1384 61.6356 81.0315C61.3674 80.9245 61.0682 80.926 60.8011 81.0355C60.534 81.1451 60.3199 81.3542 60.2041 81.6186C60.0882 81.8831 60.0797 82.1822 60.1803 82.4528Z" fill="#A8B3C1"/>
<path d="M11.1684 9.9759C11.2363 11.08 11.494 12.1641 11.9303 13.1806C12.0444 13.4517 12.2604 13.6671 12.5317 13.7807C12.8031 13.8942 13.1081 13.8966 13.3813 13.7876C15.1438 13.0788 16.9346 12.4617 18.7395 11.8891C17.6266 12.3245 16.5157 12.7648 15.4095 13.2173C15.3776 13.2278 15.3467 13.2329 15.3141 13.2465L14.8583 13.4371C14.5949 13.5555 14.3879 13.7716 14.281 14.0398C14.174 14.308 14.1755 14.6072 14.285 14.8743C14.3946 15.1414 14.6037 15.3555 14.8681 15.4714C15.1326 15.5872 15.4317 15.5957 15.7023 15.4951C20.2618 13.6126 24.8938 11.9166 29.4956 10.1429C29.0041 12.0381 28.8317 14.002 28.9855 15.9539C29.1837 19.8255 28.7344 23.9354 29.7773 27.6781C29.8322 27.8136 29.9134 27.9369 30.0162 28.0409C30.119 28.1449 30.2414 28.2274 30.3763 28.2839C30.5112 28.3403 30.656 28.3694 30.8022 28.3696C30.9484 28.3698 31.0933 28.3411 31.2283 28.285L31.4407 28.1763C31.6669 28.0824 31.856 27.9168 31.979 27.705C32.102 27.4933 32.152 27.247 32.1215 27.004L32.1744 26.7505C32.236 26.5229 32.2082 26.2805 32.0968 26.0728C31.9853 25.8652 31.7986 25.708 31.575 25.6336C31.3499 24.212 31.2373 22.7749 31.2383 21.3357C31.4718 23.1099 31.8992 24.8531 32.5127 26.5341C32.8833 27.5313 34.6205 27.3877 34.6446 26.2531C34.6944 23.9095 34.0931 21.69 33.9166 19.3612C33.7181 16.7184 33.8978 14.0608 34.4502 11.4688C34.7067 10.7963 34.8839 10.0962 34.9783 9.38269C35.1793 8.6937 35.3969 8.008 35.65 7.33038C35.727 7.12773 35.7436 6.90712 35.6978 6.69523C35.6521 6.48333 35.5459 6.28923 35.3922 6.13638C35.2385 5.98352 35.0438 5.87845 34.8317 5.83388C34.6195 5.78931 34.399 5.80715 34.1968 5.88522C34.0677 5.93859 33.9367 5.9875 33.8074 6.04053C33.6797 5.80685 33.4712 5.62771 33.2209 5.53659C32.9707 5.44546 32.6959 5.44861 32.4478 5.54543C32.3171 5.58812 32.1851 5.62653 32.0542 5.66872C29.9989 5.13796 27.4915 5.54833 25.5949 5.79409C21.0382 6.38452 16.6565 7.96501 12.1278 8.72976C11.8381 8.77366 11.5765 8.92782 11.3977 9.16004C11.2189 9.39225 11.1368 9.68455 11.1684 9.9759ZM32.3048 9.03445C32.3392 9.02089 32.3735 9.00704 32.4078 8.99341C32.5457 9.35985 32.5764 9.75797 32.4964 10.1412C32.4723 10.2442 32.4519 10.3479 32.4288 10.451C32.4067 10.5359 32.3882 10.6185 32.3588 10.7082C31.9022 11.958 31.5088 13.2299 31.18 14.5192C31.0579 12.6233 31.4463 10.7293 32.3048 9.03445ZM19.0099 9.48629C17.1913 10.043 15.3875 10.6467 13.6067 11.3249C13.5512 11.1293 13.5061 10.931 13.4715 10.7308C15.3313 10.3763 17.1724 9.94051 19.0099 9.48629Z" fill="#A8B3C1"/>
</g>
<defs>
<clipPath id="clip0_4008_6356">
<rect width="90.6739" height="35.6756" fill="white" transform="translate(34.9844 97.418) rotate(-112.695)"/>
</clipPath>
</defs>
</svg>
