<svg width="86" height="75" viewBox="0 0 86 75" fill="none" xmlns="http://www.w3.org/2000/svg">
<path d="M84.8317 33.9779C82.2538 13.8256 60.5591 -2.38276 40.5639 0.289115C40.0853 0.353088 39.6123 0.429945 39.142 0.513043C39.0759 0.410754 38.9799 0.33126 38.8671 0.285325C38.7543 0.239389 38.6301 0.22923 38.5113 0.256222C35.5725 0.847243 32.6519 1.5125 29.826 2.36767C17.8953 4.6551 7.03773 11.3058 2.24848 23.1203C-5.41096 42.0153 7.52653 64.6643 25.5144 71.8647C25.934 72.0326 26.357 72.1906 26.7819 72.3433C32.241 74.771 38.2885 75.5581 44.1872 74.6087C53.8417 73.922 63.0723 70.3728 70.6998 64.4145C73.2642 62.3852 75.5046 59.9774 77.3441 57.2737C82.8522 51.1097 86.0124 43.2081 84.8317 33.9779ZM83.8232 35.8395C84.2229 40.8116 83.1864 45.7939 80.8371 50.1941C81.3291 48.7172 81.6923 47.2005 81.9225 45.661C82.7878 39.7961 81.6661 33.8478 79.3547 28.3932C78.5154 24.1886 76.7721 20.2167 74.2455 16.7527C68.5665 8.95132 59.5597 4.50228 50.3012 2.55319C47.0894 1.88432 43.8216 1.51966 40.5413 1.46403C60.6319 -1.25596 82.0855 15.5241 83.8232 35.8395ZM70.5047 61.9793C67.844 63.9125 64.9697 65.5333 61.9386 66.8095C70.7845 60.1682 77.4343 50.2369 79.4143 39.6967C79.7783 37.7574 79.9499 35.7869 79.9265 33.8139C81.2432 38.9383 81.379 44.3191 79.8465 49.4554C79.0432 52.0932 77.8162 54.5828 76.2137 56.8268C74.4938 58.7368 72.5805 60.4636 70.5047 61.9793H70.5047ZM40.9161 73.506C36.0167 73.584 31.1486 72.712 26.581 70.9381C23.2772 69.2918 20.3105 67.0419 17.8341 64.3046C18.0147 64.4456 18.1896 64.5931 18.3735 64.7303C27.0823 71.2259 38.3232 72.8837 48.9099 71.5287C50.0227 71.3863 51.1373 71.2027 52.2538 70.9779C49.8013 72.035 47.2386 72.8156 44.6132 73.3049C43.3808 73.4148 42.147 73.4855 40.916 73.506H40.9161ZM38.5463 70.6431C29.5687 70.0289 21.0968 66.5459 14.8872 59.959C14.546 59.5971 14.2175 59.2263 13.8971 58.85C13.7273 58.5487 13.5622 58.2444 13.4019 57.9371C4.75175 41.2655 10.5195 18.9494 25.2655 7.85942C31.7672 4.80423 38.6441 2.89412 46.1621 3.63269C57.5743 4.75386 67.6606 12.1251 74.1055 21.3224C75.77 23.6957 77.1713 26.2431 78.2846 28.9197C80.5744 41.9733 72.9842 55.9232 62.7898 64.4594C60.9417 66.0083 58.9691 67.4025 56.8922 68.6278C50.9451 70.3835 44.7327 71.0659 38.5462 70.6431H38.5463ZM34.7029 2.84013C35.4784 2.77249 36.2554 2.72309 37.0337 2.69193C35.3533 2.97667 33.6931 3.36974 32.0634 3.86866C32.7603 3.56171 33.4693 3.27502 34.1929 3.01401C34.3624 2.9529 34.5329 2.8981 34.7029 2.84013ZM24.7967 6.7201C21.3438 8.39344 17.9894 10.2629 14.75 12.3194C14.8287 12.231 14.9019 12.1383 14.9817 12.0507C19.0259 7.61299 24.4137 5.14849 30.0715 3.49053C28.2209 4.40842 26.4557 5.48921 24.7967 6.7201ZM12.654 14.9432C12.7786 14.9514 12.9025 14.9177 13.0058 14.8475C15.5621 13.2144 18.1542 11.6123 20.8009 10.1488C12.1995 18.653 7.52987 31.3357 8.31628 43.6364C8.53299 47.0017 9.18798 50.3243 10.2647 53.5201C7.59099 48.4174 6.1623 42.7545 6.09528 36.9941C5.93591 29.2075 8.12031 21.284 12.6539 14.9432H12.654ZM60.8238 7.35363C65.8477 9.75156 70.2093 13.3414 73.5285 17.8106C74.5859 19.2589 75.4988 20.8074 76.254 22.4339C75.5605 21.3158 74.8243 20.232 74.0508 19.1918C70.4936 14.3865 65.9926 10.3582 60.8238 7.35363H60.8238ZM1.3636 34.6348C1.25168 23.3303 7.6118 13.5875 17.2674 8.0716C18.0267 7.63783 18.7991 7.23282 19.5846 6.85658C16.7088 8.64173 14.1751 10.9265 12.1032 13.603C6.02434 21.4861 3.99449 32.1728 5.25154 41.9008C6.09353 48.3727 8.74494 54.4756 12.9009 59.5077C14.2911 62.0058 16.0183 64.3007 18.034 66.328C16.817 65.4677 15.6488 64.5404 14.5348 63.5504C10.4756 59.89 7.21194 55.4346 4.94622 50.4605C2.6805 45.4864 1.46107 40.0998 1.3636 34.6348ZM54.0356 71.5612C55.3846 70.9337 56.6999 70.2362 57.9762 69.4716C61.536 68.3126 64.9512 66.7496 68.1552 64.8132C66.9729 65.6632 65.7482 66.4527 64.486 67.1786C61.1936 69.0589 57.6843 70.5306 54.0356 71.5612H54.0356Z" fill="#4744C9"/>
<g clip-path="url(#clip0_4008_6484)">
<path fill-rule="evenodd" clip-rule="evenodd" d="M65.8544 20.0933C65.8156 19.9839 65.755 19.8834 65.6764 19.798C65.6661 19.7106 65.6379 19.6263 65.5937 19.5503C65.5495 19.4743 65.4901 19.4081 65.4192 19.356C65.3483 19.3039 65.2675 19.2669 65.1818 19.2473C65.096 19.2277 65.0071 19.2259 64.9207 19.2421C58.0699 20.0871 51.0386 19.5989 44.1411 19.6312C44.0012 18.2832 43.9425 16.928 43.9653 15.573C43.9896 14.5824 42.4801 14.6619 42.4385 15.635C42.3752 16.9734 42.4074 18.3146 42.5349 19.6485C39.1479 19.6862 35.7609 19.7521 32.374 19.8462C30.6141 19.896 28.8564 19.9545 27.1008 20.0215C25.4396 19.9432 23.7747 20.0208 22.128 20.2531C20.3809 20.67 20.4158 23.2892 21.4695 24.4396C22.1943 25.2342 23.1027 25.0722 24.0594 24.9288C24.068 27.7156 24.0865 30.5024 24.1151 33.2893L24.0552 33.3726C24.0235 33.4126 24 33.4585 23.9862 33.5076C23.9723 33.5568 23.9683 33.6082 23.9744 33.6588C23.9805 33.7095 23.9966 33.7585 24.0218 33.8029C24.0469 33.8473 24.0806 33.8863 24.121 33.9176C24.1544 37.3091 24.1921 40.7004 24.2341 44.0913C24.2493 45.5995 24.2259 47.1146 24.2787 48.6247C24.2076 49.5611 24.4875 50.4905 25.0639 51.2318C25.6445 51.7328 26.3949 51.9923 27.1609 51.9572C28.9085 52.0822 30.6799 52.0837 32.4326 52.1256C34.9049 52.1827 37.3795 52.2198 39.8566 52.2369C37.6346 54.6507 35.371 57.0402 33.253 59.5381C33.1245 59.6869 33.0588 59.8799 33.07 60.0763C33.0811 60.2727 33.1682 60.457 33.3128 60.5904C33.4573 60.7238 33.6481 60.7957 33.8447 60.791C34.0414 60.7863 34.2285 60.7053 34.3665 60.5652C36.9122 57.8978 39.302 55.0599 41.7542 52.3041L41.7903 52.2534C42.1074 52.2545 42.423 52.2601 42.7383 52.2608C42.7911 55.0103 42.9054 57.7555 43.0813 60.4967C43.1466 61.4893 44.6943 61.4295 44.6245 60.4367C44.4321 57.7134 44.2974 54.9882 44.2205 52.2612C44.7155 52.2614 45.2104 52.2602 45.7052 52.2578C45.7255 52.3031 45.7522 52.3453 45.7845 52.383C48.3152 55.5515 51.1278 58.4843 54.1878 61.1452C54.3339 61.2713 54.5233 61.3356 54.7159 61.3247C54.9086 61.3137 55.0894 61.2282 55.2202 61.0864C55.351 60.9445 55.4215 60.7573 55.4169 60.5644C55.4122 60.3715 55.3327 60.188 55.1952 60.0526C52.5661 57.4841 49.9179 54.9842 47.4569 52.255C49.0376 52.2493 50.6199 52.237 52.2037 52.2181C55.1122 52.178 58.1943 52.3742 61.0547 51.7595C61.9678 51.6661 62.8249 51.2749 63.4938 50.6462C64.2073 49.7552 63.9848 48.4241 63.96 47.38C63.7897 40.0061 63.6194 32.6323 63.449 25.2586C66.4628 25.0853 66.7239 22.4542 65.8547 20.0932L65.8544 20.0933ZM32.3072 47.0671C31.2243 48.1299 30.143 49.1923 29.0775 50.2722L28.0794 50.2483C27.2397 50.2301 26.3526 50.1649 26.0285 49.3077C26.0156 49.273 26.0044 49.2371 25.994 49.2005C27.5114 47.8905 28.9202 46.4389 30.3352 45.0134C30.4006 45.085 30.4801 45.1423 30.5688 45.1815C30.6574 45.2208 30.7532 45.2413 30.8502 45.2416C30.9471 45.2419 31.0431 45.2221 31.132 45.1835C31.2209 45.1448 31.3008 45.0881 31.3667 45.017C33.7125 42.5809 36.055 40.1394 38.3939 37.6925L40.1445 35.8581C40.4388 35.5531 40.7314 35.2457 41.0241 34.9428C41.2713 34.431 41.5264 34.4587 41.7892 35.0259C42.4401 35.5452 43.0224 36.145 43.5223 36.8109C44.0972 37.4072 44.6766 37.9996 45.254 38.5958C45.767 39.1215 46.377 40.0558 47.2472 39.8441C48.3154 39.5821 49.3985 37.9186 50.1367 37.1775C52.5618 34.7413 55.1023 32.3764 57.4041 29.8268C57.5372 29.672 57.6051 29.4716 57.5933 29.2678C57.5816 29.0639 57.4912 28.8726 57.3412 28.7341C57.1912 28.5956 56.9933 28.5207 56.7892 28.5252C56.5851 28.5298 56.3907 28.6133 56.2469 28.7583L56.2471 28.7586C53.7083 31.0759 51.3571 33.6279 48.9347 36.066C48.4069 36.7508 47.7953 37.3669 47.1145 37.8999C47.3342 38.4567 47.2252 38.4395 46.7874 37.8483L45.9137 36.9614C44.8232 35.7119 43.658 34.5295 42.4247 33.4207C41.7458 32.8856 41.1925 32.7259 40.4626 33.2891C39.3109 34.3251 38.2406 35.4481 37.2612 36.6482C35.236 38.7907 33.2154 40.937 31.1994 43.087C31.0949 43.0339 30.9761 43.0159 30.8606 43.0356C30.745 43.0554 30.639 43.1118 30.5581 43.1966C29.031 44.7057 27.4192 46.1737 25.9454 47.7497C25.9467 47.6932 25.9469 47.6383 25.946 47.586C25.9224 46.251 25.9096 44.9152 25.8928 43.5816C28.3153 41.4585 30.4745 39.0527 32.3243 36.4155C32.7298 35.8579 31.9375 35.1183 31.5286 35.6821C29.7857 38.0059 27.8978 40.2173 25.8762 42.3032L25.8272 38.4516C28.0264 36.0737 29.952 33.4136 31.9671 30.8844C32.3767 30.3695 31.6253 29.6689 31.2108 30.1877C29.412 32.4418 27.5027 34.6491 25.8083 36.9931C25.7897 35.5763 25.7701 34.1596 25.7497 32.7428C27.5207 30.9239 29.1349 28.9432 30.8025 27.0353C31.2546 26.5182 30.4721 25.792 30.0169 26.3106C28.5904 27.9393 27.1065 29.5361 25.7268 31.2117C25.6935 29.0586 25.6554 26.9056 25.6126 24.7527C26.9667 24.6478 28.3288 24.6549 29.6891 24.6774C36.9248 24.7886 44.1619 24.9153 51.4006 25.0576C54.7904 25.1164 58.2575 25.3803 61.6656 25.3209C61.7921 30.8338 61.9192 36.3462 62.0467 41.8582C62.0753 43.1735 62.1054 44.4889 62.137 45.8042C62.1693 47.2909 62.6529 49.2442 61.0661 49.9263L61.0656 49.9259C59.8502 50.2772 58.5832 50.4158 57.3206 50.3355C55.9197 50.3794 54.5187 50.3957 53.12 50.4181C47.5181 50.5047 41.9165 50.5046 36.3149 50.418C34.3694 50.3881 32.4247 50.3504 30.4809 50.3048C31.3588 49.4745 32.2288 48.6356 33.0984 47.7957C33.5957 47.3152 32.8021 46.5823 32.3072 47.0671ZM62.5214 23.5455C61.095 23.5309 59.6722 23.4989 58.2458 23.4734C55.2821 23.4239 52.3195 23.3734 49.358 23.3221C43.5424 23.2237 37.728 23.1259 31.915 23.0286C30.5083 23.005 29.1007 22.9643 27.6906 22.9776C26.3396 22.9922 24.8624 23.4062 23.5433 23.3326C23.0257 23.3041 22.9349 23.7359 22.5267 22.9217C22.4458 22.6849 22.419 22.433 22.4482 22.1845C22.6299 21.6975 22.9742 21.8426 23.5387 21.8178C25.0739 21.7489 26.6128 21.6863 28.1552 21.63C33.9796 21.4179 39.8076 21.2904 45.6393 21.2473C51.8476 21.2055 58.1587 21.5964 64.3401 20.8668C64.5135 21.2716 64.623 21.7009 64.6645 22.1393C64.6984 23.3601 63.5196 23.5567 62.5214 23.5455Z" fill="#4744C9"/>
</g>
<defs>
<clipPath id="clip0_4008_6484">
<rect width="50.0503" height="50.8327" fill="white" transform="translate(12.8438 24.3203) rotate(-23.9022)"/>
</clipPath>
</defs>
</svg>
