<svg width="86" height="75" viewBox="0 0 86 75" fill="none" xmlns="http://www.w3.org/2000/svg">
<path d="M84.8317 33.9779C82.2538 13.8256 60.5591 -2.38276 40.5639 0.289115C40.0853 0.353088 39.6123 0.429945 39.142 0.513043C39.0759 0.410754 38.9799 0.33126 38.8671 0.285325C38.7543 0.239389 38.6301 0.22923 38.5113 0.256222C35.5725 0.847243 32.6519 1.5125 29.826 2.36767C17.8953 4.6551 7.03773 11.3058 2.24848 23.1203C-5.41096 42.0153 7.52653 64.6643 25.5144 71.8647C25.934 72.0326 26.357 72.1906 26.7819 72.3433C32.241 74.771 38.2885 75.5581 44.1872 74.6087C53.8417 73.922 63.0723 70.3728 70.6998 64.4145C73.2642 62.3852 75.5046 59.9774 77.3441 57.2737C82.8522 51.1097 86.0124 43.2081 84.8317 33.9779ZM83.8232 35.8395C84.2229 40.8116 83.1864 45.7939 80.8371 50.1941C81.3291 48.7172 81.6923 47.2005 81.9225 45.661C82.7878 39.7961 81.6661 33.8478 79.3547 28.3932C78.5154 24.1886 76.7721 20.2167 74.2455 16.7527C68.5665 8.95132 59.5597 4.50228 50.3012 2.55319C47.0894 1.88432 43.8216 1.51966 40.5413 1.46403C60.6319 -1.25596 82.0855 15.5241 83.8232 35.8395ZM70.5047 61.9793C67.844 63.9125 64.9697 65.5333 61.9386 66.8095C70.7845 60.1682 77.4343 50.2369 79.4143 39.6967C79.7783 37.7574 79.9499 35.7869 79.9265 33.8139C81.2432 38.9383 81.379 44.3191 79.8465 49.4554C79.0432 52.0932 77.8162 54.5828 76.2137 56.8268C74.4938 58.7368 72.5805 60.4636 70.5047 61.9793H70.5047ZM40.9161 73.506C36.0167 73.584 31.1486 72.712 26.581 70.9381C23.2772 69.2918 20.3105 67.0419 17.8341 64.3046C18.0147 64.4456 18.1896 64.5931 18.3735 64.7303C27.0823 71.2259 38.3232 72.8837 48.9099 71.5287C50.0227 71.3863 51.1373 71.2027 52.2538 70.9779C49.8013 72.035 47.2386 72.8156 44.6132 73.3049C43.3808 73.4148 42.147 73.4855 40.916 73.506H40.9161ZM38.5463 70.6431C29.5687 70.0289 21.0968 66.5459 14.8872 59.959C14.546 59.5971 14.2175 59.2263 13.8971 58.85C13.7273 58.5487 13.5622 58.2444 13.4019 57.9371C4.75175 41.2655 10.5195 18.9494 25.2655 7.85942C31.7672 4.80423 38.6441 2.89412 46.1621 3.63269C57.5743 4.75386 67.6606 12.1251 74.1055 21.3224C75.77 23.6957 77.1713 26.2431 78.2846 28.9197C80.5744 41.9733 72.9842 55.9232 62.7898 64.4594C60.9417 66.0083 58.9691 67.4025 56.8922 68.6278C50.9451 70.3835 44.7327 71.0659 38.5462 70.6431H38.5463ZM34.7029 2.84013C35.4784 2.77249 36.2554 2.72309 37.0337 2.69193C35.3533 2.97667 33.6931 3.36974 32.0634 3.86866C32.7603 3.56171 33.4693 3.27502 34.1929 3.01401C34.3624 2.9529 34.5329 2.8981 34.7029 2.84013ZM24.7967 6.7201C21.3438 8.39344 17.9894 10.2629 14.75 12.3194C14.8287 12.231 14.9019 12.1383 14.9817 12.0507C19.0259 7.61299 24.4137 5.14849 30.0715 3.49053C28.2209 4.40842 26.4557 5.48921 24.7967 6.7201ZM12.654 14.9432C12.7786 14.9514 12.9025 14.9177 13.0058 14.8475C15.5621 13.2144 18.1542 11.6123 20.8009 10.1488C12.1995 18.653 7.52987 31.3357 8.31628 43.6364C8.53299 47.0017 9.18798 50.3243 10.2647 53.5201C7.59099 48.4174 6.1623 42.7545 6.09528 36.9941C5.93591 29.2075 8.12031 21.284 12.6539 14.9432H12.654ZM60.8238 7.35363C65.8477 9.75156 70.2093 13.3414 73.5285 17.8106C74.5859 19.2589 75.4988 20.8074 76.254 22.4339C75.5605 21.3158 74.8243 20.232 74.0508 19.1918C70.4936 14.3865 65.9926 10.3582 60.8238 7.35363H60.8238ZM1.3636 34.6348C1.25168 23.3303 7.6118 13.5875 17.2674 8.0716C18.0267 7.63783 18.7991 7.23282 19.5846 6.85658C16.7088 8.64173 14.1751 10.9265 12.1032 13.603C6.02434 21.4861 3.99449 32.1728 5.25154 41.9008C6.09353 48.3727 8.74494 54.4756 12.9009 59.5077C14.2911 62.0058 16.0183 64.3007 18.034 66.328C16.817 65.4677 15.6488 64.5404 14.5348 63.5504C10.4756 59.89 7.21194 55.4346 4.94622 50.4605C2.6805 45.4864 1.46107 40.0998 1.3636 34.6348ZM54.0356 71.5612C55.3846 70.9337 56.6999 70.2362 57.9762 69.4716C61.536 68.3126 64.9512 66.7496 68.1552 64.8132C66.9729 65.6632 65.7482 66.4527 64.486 67.1786C61.1936 69.0589 57.6843 70.5306 54.0356 71.5612H54.0356Z" fill="#4744C9"/>
<g clip-path="url(#clip0_4008_6492)">
<path fill-rule="evenodd" clip-rule="evenodd" d="M66.9283 47.5308C66.7621 46.4857 66.5013 45.4475 66.2881 44.4121C66.267 44.259 66.1859 44.1198 66.0616 44.0236C65.9374 43.9275 65.7797 43.882 65.6217 43.8967C64.1192 44.0702 62.6185 44.2402 61.1198 44.4066C61.179 44.2856 61.1969 44.1492 61.1708 44.0176C60.2822 38.7369 59.7413 33.4064 59.5516 28.0585C59.5047 26.7214 59.4808 25.3845 59.4799 24.0479C59.4775 23.2074 59.6392 22.2333 58.983 21.5714C58.7327 21.3615 58.4414 21.2029 58.1267 21.1049C57.8119 21.007 57.4801 20.9718 57.1511 21.0014C55.9194 20.9834 54.6633 21.1364 53.4334 21.2108C42.4184 21.8875 31.2736 22.6047 20.3576 24.2243C20.1916 24.2466 20.041 24.3306 19.9374 24.4587C19.8337 24.5868 19.7851 24.7489 19.8017 24.9112C20.558 32.6014 21.2526 40.2957 22.0145 47.985C22.0216 48.0651 22.0479 48.1426 22.0913 48.211C21.0283 48.2994 19.9669 48.3875 18.907 48.4753C18.8249 48.4098 18.7252 48.3686 18.6198 48.3566C18.5143 48.3445 18.4076 48.3622 18.3121 48.4074C18.2167 48.4526 18.1366 48.5235 18.0813 48.6117C18.026 48.6999 17.9978 48.8017 18.0001 48.905C18.0591 50.4467 18.1188 51.9892 18.1792 53.5324C18.1971 53.6714 18.2705 53.7979 18.3834 53.8848C18.4963 53.9716 18.6398 54.0118 18.7829 53.9967C28.2709 52.9225 37.7735 51.9798 47.2906 51.1684C52.0036 50.7711 56.7206 50.412 61.4417 50.0911C62.5781 50.0163 63.7162 49.9505 64.8523 49.8689C65.5382 49.8193 66.2981 49.8235 66.733 49.2144C67.0172 48.6982 67.0871 48.0956 66.9283 47.5308ZM31.7131 26.7791C30.4563 28.2196 29.2073 29.6666 27.9659 31.1201C26.8479 32.4306 25.5683 33.7453 24.5231 35.1519L24.2371 32.2033L24.2384 32.2016C24.8536 31.4107 25.2783 30.4808 25.8804 29.671C26.5235 28.8082 27.2409 28.0004 28.0249 27.2562C28.0632 27.2199 28.0952 27.178 28.1198 27.1319C29.3179 27.0179 30.5157 26.9003 31.7131 26.7791ZM24.6709 36.6728C26.1215 35.0956 27.4807 33.441 28.7423 31.7168C30.1151 30.0279 31.4968 28.3463 32.8874 26.6718L32.8975 26.659C34.2903 26.5175 35.6829 26.3751 37.0751 26.232C34.9505 28.5952 32.8723 30.9971 30.8405 33.4376C29.7135 34.7972 28.6016 36.1688 27.505 37.5524C26.6347 38.5269 25.8167 39.5444 25.0541 40.6008C24.9257 39.2914 24.7979 37.982 24.6709 36.6728ZM55.9553 40.1528C55.6829 40.5916 55.3525 40.9935 54.9724 41.3483C54.6801 41.6198 54.3324 41.828 54.0263 42.0802C53.3428 42.09 52.6603 42.1252 51.9788 42.1764C52.3325 41.7158 52.6804 41.2511 53.0338 40.791C53.9342 39.6177 54.8349 38.4446 55.7357 37.2718C55.8095 38.2255 55.8822 39.1802 55.9539 40.1358L55.9553 40.1528ZM55.6338 42.0965C55.6874 42.0439 55.739 41.9921 55.7896 41.9415C55.8862 41.8447 55.979 41.7451 56.0679 41.6427C56.0551 41.7536 56.006 41.8576 55.9278 41.9394C55.8497 42.0211 55.7466 42.0762 55.6338 42.0965ZM55.4373 35.9934L52.7042 39.4301C52.2939 39.946 51.8841 40.4616 51.4746 40.977C51.1769 41.3506 50.8427 41.8961 50.4622 42.3124C49.8109 42.3791 49.1605 42.4542 48.5109 42.5288L47.4716 42.6502C48.0281 41.9552 48.5262 41.1954 49.0515 40.4987C49.8641 39.4203 50.6767 38.3417 51.4894 37.2629C52.7871 35.5365 54.0697 33.7996 55.3374 32.0522C55.4337 33.3152 55.53 34.5784 55.6264 35.8417C55.5519 35.8769 55.487 35.9289 55.4373 35.9934ZM49.9825 43.5958C49.1946 43.6832 48.4082 43.7802 47.6234 43.8711C42.6164 44.4539 37.6091 45.0376 32.5847 45.4654C31.2853 45.5753 29.986 45.6753 28.6866 45.7653C27.5948 45.9335 26.4878 45.9894 25.3839 45.9319C23.6216 45.6677 23.9981 42.8284 23.8734 41.5724C23.3897 36.7304 22.9028 31.8909 22.4128 27.0539C22.4037 26.9422 22.4243 26.8301 22.4727 26.7284C22.5211 26.6267 22.5957 26.539 22.6892 26.4736C22.7827 26.4082 22.892 26.3675 23.0064 26.3553C23.1208 26.3431 23.2366 26.3599 23.3424 26.404C28.5787 25.7824 33.8372 25.3118 39.0848 24.7888C44.4672 24.1277 49.8831 23.7581 55.3076 23.6817C55.4735 23.6663 55.6392 23.7137 55.7701 23.8142C55.901 23.9147 55.987 24.0604 56.0103 24.2211H56.0099C56.4286 29.729 56.8473 35.2364 57.266 40.7431C57.317 41.4019 57.6418 42.4825 57.1534 43.0453C56.7182 43.5433 55.9071 43.3397 55.3398 43.3178C53.8393 43.2763 52.3378 43.3385 50.8464 43.5041C50.6791 43.6068 50.4874 43.6656 50.2899 43.6747C50.1812 43.6823 50.0731 43.6545 49.9825 43.5958ZM55.2224 30.5389C53.6496 32.6216 52.0526 34.6866 50.4642 36.7582C49.6878 37.7703 48.9108 38.7819 48.1334 39.7929C47.3099 40.7596 46.551 41.7767 45.8612 42.8378C44.958 42.9429 44.0549 43.0472 43.1518 43.1508C44.2762 41.921 45.2773 40.5896 46.1417 39.1747C47.1927 37.7146 48.2413 36.2534 49.2876 34.791C51.1833 32.1472 53.0599 29.4899 54.9412 26.8362L55.2224 30.5389ZM54.8108 25.4339C52.6754 28.327 50.5303 31.2133 48.41 34.1166C47.3489 35.5682 46.2886 37.0204 45.229 38.4731C44.1212 39.7618 43.1511 41.1571 42.3339 42.6372C42.2949 42.7409 42.2916 42.8542 42.3246 42.96C42.3576 43.0657 42.4251 43.1581 42.5169 43.2232C41.2058 43.3717 39.8941 43.5157 38.5816 43.6552C39.6876 42.3183 40.633 40.8159 41.6513 39.4223C42.8337 37.8039 44.0227 36.1899 45.2182 34.5802C47.5645 31.4205 49.9257 28.2712 52.3016 25.1324C52.3443 25.0777 52.3746 25.0149 52.3908 24.948C53.1917 24.9222 53.9931 24.9085 54.795 24.9069L54.8326 25.4065L54.8108 25.4339ZM51.1833 24.9953C48.84 28.0122 46.5217 31.0473 44.2286 34.1006C43.0717 35.6462 41.9212 37.1961 40.777 38.7502C39.5425 40.2955 38.3907 41.9019 37.3265 43.5628C37.2838 43.6323 37.2609 43.7116 37.2601 43.7925C36.6047 43.8594 35.9491 43.9243 35.2933 43.9874C34.6024 44.0535 33.9114 44.1174 33.2203 44.1789C33.3895 43.9906 33.5679 43.816 33.6733 43.6849C33.9558 43.3331 34.2382 42.9817 34.5206 42.6306C35.1794 41.8104 35.8384 40.9904 36.4975 40.1708C37.8622 38.4722 39.2271 36.7735 40.592 35.0749C43.2289 31.7778 45.8534 28.4716 48.4656 25.1562C49.371 25.0916 50.2769 25.038 51.1833 24.9953ZM47.2108 25.2512C44.5045 28.5202 41.8125 31.8003 39.1348 35.0915L34.8723 40.3428C34.1619 41.2178 33.4516 42.0931 32.7412 42.9687C32.3375 43.3601 31.9998 43.8112 31.7406 44.3052C30.7701 44.385 29.7987 44.4582 28.8264 44.5247C30.1318 43.0108 31.3584 41.4342 32.5015 39.8007C33.6715 38.2738 34.8491 36.7527 36.0342 35.2377C38.4951 32.0897 40.9621 28.9476 43.4811 25.8431C43.545 25.7683 43.5805 25.6744 43.5816 25.5772C44.7905 25.4596 45.9999 25.3481 47.2108 25.2512ZM42.4368 25.6903C39.9463 28.6918 37.4666 31.7031 35.045 34.7571C33.8036 36.3223 32.5704 37.8939 31.3454 39.4719C30.0714 40.9736 28.9026 42.5569 27.8468 44.2111C27.8025 44.2763 27.7803 44.3534 27.7833 44.4315C27.7863 44.5096 27.8144 44.5849 27.8636 44.6467C26.9917 44.7674 25.8919 44.8901 25.5539 44.5736C25.1835 44.2268 25.1701 43.0309 25.1597 42.1618C25.1975 42.1453 25.233 42.1241 25.2653 42.0988C26.4576 40.9327 27.5071 39.636 28.3926 38.2347C29.4782 36.843 30.5776 35.462 31.6909 34.0916C33.88 31.3922 36.1126 28.7279 38.3888 26.0985L39.229 26.0144C40.298 25.907 41.3673 25.799 42.4368 25.6904V25.6903ZM26.7165 27.2627C26.1697 27.7879 25.6548 28.3438 25.1745 28.9274C24.8083 29.374 24.4064 29.8595 24.0588 30.3705C23.966 29.4201 23.8729 28.4695 23.7796 27.5189C24.7588 27.438 25.7378 27.3525 26.7165 27.2627ZM60.8872 46.579C61.5185 46.5966 61.4783 47.6042 60.8671 47.6446C55.2714 48.0329 49.7444 48.2763 44.1864 49.1054C43.4968 49.2095 43.3811 48.1794 44.0596 48.0659C49.6048 47.0304 55.2418 46.5324 60.8879 46.5793L60.8872 46.579ZM23.0917 47.8619C22.4584 40.3718 21.7598 32.8865 21.1161 25.3986C30.9032 24.5437 40.6516 23.4054 50.4629 22.7544C51.7659 22.6676 53.0708 22.5847 54.3777 22.5055C55.2208 22.4558 57.7012 21.8757 58.0981 22.882C58.1579 23.3211 58.158 23.766 58.0984 24.2051C58.0998 24.8736 58.1061 25.5406 58.1178 26.2101C58.1372 27.3802 58.1751 28.5502 58.2315 29.7203C58.4619 34.5644 58.9805 39.3914 59.7846 44.1772C59.8058 44.3122 59.8684 44.438 59.9643 44.5378C47.6754 45.9039 35.3694 47.1022 23.046 48.1328C23.086 48.0483 23.1019 47.9548 23.092 47.8623L23.0917 47.8619ZM65.2371 48.6701C64.6352 48.8027 64.0156 48.8421 63.4011 48.7869C61.3025 48.9256 59.2049 49.0706 57.1081 49.2219C52.8233 49.5315 48.5442 49.8744 44.2708 50.2506C35.9078 50.9851 27.5626 51.8604 19.2352 52.8766C19.1838 51.7998 19.1324 50.7241 19.0809 49.6497C34.4824 48.4046 49.8593 46.8964 65.2117 45.1251C65.3565 45.8233 65.5033 46.5216 65.6401 47.2215C65.7463 47.7654 65.8634 48.3298 65.2371 48.6701V48.6701Z" fill="#4744C9"/>
</g>
<defs>
<clipPath id="clip0_4008_6492">
<rect width="49" height="33" fill="white" transform="translate(18 21)"/>
</clipPath>
</defs>
</svg>
