<svg width="86" height="75" viewBox="0 0 86 75" fill="none" xmlns="http://www.w3.org/2000/svg">
<path d="M84.8317 33.9779C82.2538 13.8256 60.5591 -2.38276 40.5639 0.289115C40.0853 0.353088 39.6123 0.429945 39.142 0.513043C39.0759 0.410754 38.9799 0.33126 38.8671 0.285325C38.7543 0.239389 38.6301 0.22923 38.5113 0.256222C35.5725 0.847243 32.6519 1.5125 29.826 2.36767C17.8953 4.6551 7.03773 11.3058 2.24848 23.1203C-5.41096 42.0153 7.52653 64.6643 25.5144 71.8647C25.934 72.0326 26.357 72.1906 26.7819 72.3433C32.241 74.771 38.2885 75.5581 44.1872 74.6087C53.8417 73.922 63.0723 70.3728 70.6998 64.4145C73.2642 62.3852 75.5046 59.9774 77.3441 57.2737C82.8522 51.1097 86.0124 43.2081 84.8317 33.9779ZM83.8232 35.8395C84.2229 40.8116 83.1864 45.7939 80.8371 50.1941C81.3291 48.7172 81.6923 47.2005 81.9225 45.661C82.7878 39.7961 81.6661 33.8478 79.3547 28.3932C78.5154 24.1886 76.7721 20.2167 74.2455 16.7527C68.5665 8.95132 59.5597 4.50228 50.3012 2.55319C47.0894 1.88432 43.8216 1.51966 40.5413 1.46403C60.6319 -1.25596 82.0855 15.5241 83.8232 35.8395ZM70.5047 61.9793C67.844 63.9125 64.9697 65.5333 61.9386 66.8095C70.7845 60.1682 77.4343 50.2369 79.4143 39.6967C79.7783 37.7574 79.9499 35.7869 79.9265 33.8139C81.2432 38.9383 81.379 44.3191 79.8465 49.4554C79.0432 52.0932 77.8162 54.5828 76.2137 56.8268C74.4938 58.7368 72.5805 60.4636 70.5047 61.9793H70.5047ZM40.9161 73.506C36.0167 73.584 31.1486 72.712 26.581 70.9381C23.2772 69.2918 20.3105 67.0419 17.8341 64.3046C18.0147 64.4456 18.1896 64.5931 18.3735 64.7303C27.0823 71.2259 38.3232 72.8837 48.9099 71.5287C50.0227 71.3863 51.1373 71.2027 52.2538 70.9779C49.8013 72.035 47.2386 72.8156 44.6132 73.3049C43.3808 73.4148 42.147 73.4855 40.916 73.506H40.9161ZM38.5463 70.6431C29.5687 70.0289 21.0968 66.5459 14.8872 59.959C14.546 59.5971 14.2175 59.2263 13.8971 58.85C13.7273 58.5487 13.5622 58.2444 13.4019 57.9371C4.75175 41.2655 10.5195 18.9494 25.2655 7.85942C31.7672 4.80423 38.6441 2.89412 46.1621 3.63269C57.5743 4.75386 67.6606 12.1251 74.1055 21.3224C75.77 23.6957 77.1713 26.2431 78.2846 28.9197C80.5744 41.9733 72.9842 55.9232 62.7898 64.4594C60.9417 66.0083 58.9691 67.4025 56.8922 68.6278C50.9451 70.3835 44.7327 71.0659 38.5462 70.6431H38.5463ZM34.7029 2.84013C35.4784 2.77249 36.2554 2.72309 37.0337 2.69193C35.3533 2.97667 33.6931 3.36974 32.0634 3.86866C32.7603 3.56171 33.4693 3.27502 34.1929 3.01401C34.3624 2.9529 34.5329 2.8981 34.7029 2.84013ZM24.7967 6.7201C21.3438 8.39344 17.9894 10.2629 14.75 12.3194C14.8287 12.231 14.9019 12.1383 14.9817 12.0507C19.0259 7.61299 24.4137 5.14849 30.0715 3.49053C28.2209 4.40842 26.4557 5.48921 24.7967 6.7201ZM12.654 14.9432C12.7786 14.9514 12.9025 14.9177 13.0058 14.8475C15.5621 13.2144 18.1542 11.6123 20.8009 10.1488C12.1995 18.653 7.52987 31.3357 8.31628 43.6364C8.53299 47.0017 9.18798 50.3243 10.2647 53.5201C7.59099 48.4174 6.1623 42.7545 6.09528 36.9941C5.93591 29.2075 8.12031 21.284 12.6539 14.9432H12.654ZM60.8238 7.35363C65.8477 9.75156 70.2093 13.3414 73.5285 17.8106C74.5859 19.2589 75.4988 20.8074 76.254 22.4339C75.5605 21.3158 74.8243 20.232 74.0508 19.1918C70.4936 14.3865 65.9926 10.3582 60.8238 7.35363H60.8238ZM1.3636 34.6348C1.25168 23.3303 7.6118 13.5875 17.2674 8.0716C18.0267 7.63783 18.7991 7.23282 19.5846 6.85658C16.7088 8.64173 14.1751 10.9265 12.1032 13.603C6.02434 21.4861 3.99449 32.1728 5.25154 41.9008C6.09353 48.3727 8.74494 54.4756 12.9009 59.5077C14.2911 62.0058 16.0183 64.3007 18.034 66.328C16.817 65.4677 15.6488 64.5404 14.5348 63.5504C10.4756 59.89 7.21194 55.4346 4.94622 50.4605C2.6805 45.4864 1.46107 40.0998 1.3636 34.6348ZM54.0356 71.5612C55.3846 70.9337 56.6999 70.2362 57.9762 69.4716C61.536 68.3126 64.9512 66.7496 68.1552 64.8132C66.9729 65.6632 65.7482 66.4527 64.486 67.1786C61.1936 69.0589 57.6843 70.5306 54.0356 71.5612H54.0356Z" fill="#4744C9"/>
<g clip-path="url(#clip0_4008_6500)">
<path fill-rule="evenodd" clip-rule="evenodd" d="M60.6181 52.7729C60.5682 50.3647 59.9704 47.8535 58.0867 46.2103C56.1533 44.5249 53.5542 44.1311 51.1 43.7738C50.9641 43.7116 50.8106 43.6997 50.6667 43.74C50.6288 43.7436 50.5911 43.7498 50.5539 43.7584C48.6799 43.4354 47.6806 41.8664 47.4898 39.9547C47.4795 39.8553 47.4438 39.7602 47.3862 39.6785C50.3545 37.6573 52.1354 33.6003 52.469 30.1625C52.5131 30.1015 52.5454 30.0328 52.5643 29.96C53.6589 25.7054 53.7447 19.0427 49.5186 16.388L49.516 16.3878C47.3879 15.0506 44.7335 14.8856 42.2893 15.0546C39.9602 15.2157 37.4888 15.7822 35.863 17.586C34.2718 19.3543 34.1325 21.9559 34.0589 24.2207C33.9645 26.9386 34.3046 29.6542 35.0663 32.265C35.8013 34.7482 37.1768 37.6498 39.2771 39.3946C39.2049 40.4276 38.7789 41.4041 38.0709 42.1598C37.3629 42.9154 36.4162 43.4039 35.3901 43.5431C35.3089 43.5506 35.2305 43.5761 35.1604 43.6177C35.0903 43.6593 35.0303 43.716 34.9849 43.7836C30.9351 45.1848 26.8778 47.2057 26.1469 51.8848C25.98 53.0712 25.9552 54.2733 26.0731 55.4655C26.1522 56.4571 26.1447 57.757 26.7405 58.6129C27.9806 60.3992 31.2991 59.8509 33.1112 59.8831C34.8488 59.9137 36.5878 59.9334 38.3282 59.9423C38.3744 59.9665 38.4258 59.9793 38.4779 59.9794C38.5301 59.9796 38.5816 59.9672 38.6279 59.9432C40.1644 59.9504 41.701 59.9502 43.2376 59.9427C43.3177 59.9561 43.3996 59.9554 43.4796 59.9406H43.4879C46.1599 59.9237 48.8321 59.8828 51.5047 59.8178C51.5395 59.8696 51.5857 59.9127 51.6398 59.9438C51.6939 59.9748 51.7545 59.993 51.8168 59.9967C51.879 60.0005 51.9414 59.9899 51.9988 59.9656C52.0563 59.9414 52.1074 59.9041 52.1482 59.8569C52.1614 59.8387 52.1742 59.8212 52.1879 59.8037L52.2146 59.8032C52.7356 59.7896 53.2573 59.7751 53.7795 59.7599C53.809 59.8105 53.8494 59.8538 53.8977 59.8869C53.946 59.92 54.001 59.9419 54.0588 59.9511C54.1166 59.9604 54.1758 59.9566 54.2319 59.9402C54.2881 59.9238 54.34 59.8951 54.3837 59.8562C54.4202 59.8186 54.4544 59.7778 54.4909 59.7398C55.2247 59.7175 55.9583 59.6918 56.6918 59.6625C57.7625 59.6208 58.9013 59.6189 59.6445 58.7321C60.8367 57.3075 60.656 54.5036 60.6181 52.7729ZM48.0119 43.8571C48.6318 44.3475 49.3535 44.6932 50.1242 44.8686C50.1359 44.8841 50.1466 44.9 50.16 44.9184C49.909 46.0112 49.5 47.0615 48.9458 48.0363C48.7678 47.7975 48.5691 47.5747 48.3522 47.3705C47.8663 46.8976 47.3418 46.4661 46.784 46.0806C47.2694 45.3841 47.6809 44.6389 48.0119 43.8571ZM45.9829 47.7611C46.0898 47.5781 46.1861 47.3891 46.2715 47.1951C46.5334 47.3942 46.7862 47.6012 47.0307 47.8231C47.402 48.1566 47.7141 48.5847 48.0858 48.9141C48.159 49.0294 48.2711 49.1147 48.4017 49.1546C47.895 50.1938 47.3704 51.2231 46.828 52.2425C46.4123 53.0215 45.9759 53.7848 45.5326 54.5437C45.4308 53.9632 45.3098 53.3849 45.2383 52.8053C45.1071 51.736 45.04 50.6629 45.0076 49.5864C45.0057 49.5579 45.0042 49.5363 44.9999 49.5084C45.328 48.9279 45.6617 48.3484 45.9829 47.7611ZM45.721 45.6372C45.1491 45.482 44.5499 45.4558 43.9666 45.5605C43.3242 45.5595 42.683 45.6166 42.0509 45.731C41.1335 44.6388 40.2911 43.4858 39.5294 42.2799C39.5119 42.2573 39.4958 42.2357 39.4774 42.2161C39.9172 41.5937 40.2077 40.8784 40.3264 40.1256C41.4968 40.8088 42.8616 41.0822 44.2048 40.9024C44.9111 40.8162 45.5996 40.6204 46.2455 40.322C46.2438 41.2833 46.5628 42.2177 47.1519 42.9774C46.6646 43.8415 46.2737 44.7494 45.7907 45.6137C45.7663 45.6212 45.745 45.6278 45.721 45.6372ZM51.8769 27.3722C51.7285 26.681 51.6226 25.9813 51.5599 25.2771C51.7235 25.0295 51.8703 24.7712 51.9993 24.504C52.0324 25.4618 51.9915 26.4207 51.8769 27.3722ZM51.9006 23.1866C51.8369 23.2209 51.7858 23.2746 51.7547 23.34C51.6276 23.588 51.4866 23.8379 51.3509 24.0913C51.2458 23.6444 51.0686 23.2176 50.8261 22.8278C51.1512 22.4941 51.424 22.1134 51.6355 21.6983C51.7506 22.1893 51.8391 22.6861 51.9006 23.1866ZM51.3584 20.6856C51.364 20.7028 51.3683 20.7202 51.3738 20.737C51.3207 20.7482 51.2713 20.7725 51.23 20.8077C51.1887 20.8429 51.1568 20.8878 51.1374 20.9385C50.9923 21.272 50.8101 21.5881 50.5943 21.8809C50.5064 21.9938 50.4127 22.1019 50.3134 22.2048C49.912 21.7891 49.381 21.5226 48.8079 21.449C49.3989 20.6386 49.9404 19.7786 50.5044 18.9586C50.8742 19.4881 51.1621 20.0703 51.3584 20.6856ZM49.997 18.327C49.9745 18.3476 49.9542 18.3706 49.9366 18.3956C49.1806 19.4487 48.324 20.485 47.6383 21.593C46.7732 21.9469 45.9295 22.3511 45.1116 22.8036C45.6025 22.1629 46.0609 21.498 46.485 20.8114C47.2518 19.6506 47.9551 18.4524 48.6126 17.2267C49.1247 17.5248 49.591 17.8954 49.997 18.327ZM43.8649 16.0772C44.2711 16.0908 44.6703 16.1156 45.0552 16.1496C45.2116 16.1633 45.3639 16.1872 45.5175 16.2077C44.2253 18.136 42.9806 20.0926 41.7636 22.0692C41.4547 22.5696 42.2662 23.0219 42.563 22.5115C43.7759 20.426 45.0546 18.3804 46.3722 16.3598C46.908 16.4777 47.4306 16.6491 47.9323 16.8712C47.3326 17.9506 46.6988 19.0087 46.0135 20.0364C45.2123 21.0306 44.485 22.0822 43.8376 23.1828C43.8343 23.1923 43.8317 23.2021 43.8299 23.212C43.7859 23.218 43.7421 23.2259 43.6981 23.2297C42.4493 23.3404 41.4735 22.6346 40.5084 21.9431C40.9668 21.3055 41.3539 20.601 41.789 19.9572C42.511 18.8876 43.2597 17.8371 44.035 16.8058C44.0763 16.7483 44.105 16.6826 44.1188 16.6131C44.1327 16.5436 44.1316 16.4719 44.1155 16.4029C44.0994 16.3339 44.0687 16.2691 44.0255 16.2129C43.9823 16.1567 43.9275 16.1105 43.8649 16.0772ZM41.3949 16.1675C42.1011 16.0864 42.812 16.0531 43.5227 16.0678C43.4695 16.0975 43.4232 16.1383 43.3871 16.1874C42.6911 17.0985 42.0127 18.0223 41.3517 18.9591C40.7575 19.7381 40.2036 20.5471 39.6924 21.3828L39.6722 21.37C39.374 21.1733 39.0405 21.036 38.6902 20.9656C39.5838 19.4316 40.4421 17.8726 41.3419 16.3748C41.381 16.313 41.3995 16.2405 41.3949 16.1675ZM37.3628 17.608C37.4823 17.5195 37.606 17.4365 37.7316 17.3569C36.8343 18.4506 36.0476 19.6305 35.3831 20.8793C35.6327 19.588 36.3347 18.4281 37.3628 17.608ZM35.0626 25.8005C34.9943 24.4558 35.0437 23.1078 35.2102 21.7718C35.2335 21.8184 35.2685 21.8581 35.3119 21.887C35.3553 21.9158 35.4054 21.9329 35.4574 21.9364C35.5094 21.9398 35.5613 21.9297 35.6082 21.9069C35.655 21.8841 35.6951 21.8495 35.7244 21.8064C36.7038 20.4724 37.4885 19.009 38.4935 17.6851C38.5318 17.6326 38.5581 17.5724 38.5707 17.5087C38.5833 17.445 38.5818 17.3793 38.5664 17.3162C38.551 17.2531 38.5221 17.1942 38.4815 17.1434C38.441 17.0927 38.3899 17.0514 38.3318 17.0224C39.0237 16.6878 39.7571 16.4468 40.5126 16.306C39.4221 18.0647 38.2419 19.8149 37.1535 21.6031C37.0422 21.7485 36.9477 21.906 36.8717 22.0726C36.3629 22.9253 35.8778 23.7873 35.4413 24.6655C35.3972 24.7518 35.3884 24.852 35.4167 24.9447C35.445 25.0375 35.5083 25.1156 35.5931 25.1625C35.678 25.2095 35.7778 25.2217 35.8714 25.1964C35.9651 25.1712 36.0452 25.1106 36.095 25.0273C36.1446 24.9585 36.1918 24.887 36.2411 24.818C36.0875 25.888 35.7328 26.9194 35.1957 27.8576C35.122 27.134 35.0801 26.4424 35.0626 25.8005ZM35.4279 29.6079C35.506 29.5689 35.5761 29.5157 35.6347 29.451C37.1172 27.8371 37.3971 25.8171 37.7811 23.7364C37.9016 23.0781 37.8843 22.2819 39.0528 22.4921C39.5012 22.5733 40.1672 23.2992 40.569 23.5459C41.2741 24.035 42.0787 24.362 42.9251 24.5034C43.8033 24.5929 44.6877 24.4082 45.4568 23.9749C46.7026 23.344 48.5049 21.7891 49.7211 23.4259C50.9903 25.1348 50.162 27.6228 51.4757 29.4054C51.4902 29.4277 51.507 29.4483 51.5257 29.4672C51.5088 29.5409 51.4932 29.6122 51.4778 29.6872C51.4586 29.762 51.4559 29.8401 51.4699 29.916C51.484 29.992 51.5145 30.0639 51.5592 30.1268C51.0301 34.7482 47.3741 41.4154 41.9738 39.7336C37.9633 38.4857 36.1337 33.8504 35.4279 29.6079ZM38.6604 43.1491C39.277 44.303 40.0704 45.3531 41.0118 46.2616C39.8417 46.9418 38.7519 47.7517 37.7629 48.6757C37.3291 47.2534 36.9918 45.7989 36.6621 44.3542C37.4015 44.0888 38.0807 43.6792 38.6604 43.1491ZM29.516 48.1275C30.2701 47.4184 31.1254 46.8252 32.0538 46.3675C30.3128 48.7016 28.7722 51.1788 27.4486 53.7726C27.4644 51.6909 27.9338 49.6613 29.516 48.1275ZM27.5174 55.4315C27.5168 55.4192 27.5161 55.4072 27.5149 55.3948C27.5757 55.3585 27.6273 55.3086 27.6659 55.2491C28.6182 53.804 29.3402 52.1837 30.2199 50.6897C31.1039 49.1879 32.038 47.7189 33.0099 46.2733C33.0493 46.2224 33.0712 46.1601 33.0723 46.0957C33.0733 46.0313 33.0535 45.9683 33.0157 45.9162C33.9142 45.525 34.8434 45.1973 35.7517 44.8827C35.7919 45.0611 35.8351 45.2396 35.8769 45.4178C35.7975 45.3936 35.7123 45.3969 35.635 45.4272C35.5577 45.4575 35.4929 45.5129 35.451 45.5846C32.96 49.5936 30.228 53.5421 27.9305 57.67C27.651 56.9571 27.5107 56.1973 27.5174 55.4315ZM30.4933 58.3615C30.4589 58.3602 30.4254 58.36 30.3913 58.3592C29.802 58.3966 29.2103 58.3585 28.6308 58.2455C31.288 54.3378 33.5839 50.1195 36.0369 46.0828C36.2401 46.906 36.4637 47.721 36.7079 48.5276C36.6347 48.5199 36.5608 48.5339 36.4954 48.5678C36.43 48.6017 36.376 48.654 36.3401 48.7182C35.3042 50.4271 34.2687 52.1365 33.2334 53.8463C32.3294 55.3384 31.3149 56.8143 30.4933 58.3615ZM34.5698 58.4457C34.3149 58.4416 34.0618 58.4359 33.8076 58.4309C35.2324 56.5016 36.3616 54.2588 37.6034 52.2215C37.873 51.778 37.1744 51.3963 36.9012 51.833C35.5597 53.9738 33.923 56.1267 32.8442 58.4119C32.415 58.403 31.985 58.3963 31.5563 58.3865C32.4168 57.048 33.1714 55.6168 33.9776 54.2583C34.9652 52.594 35.953 50.9297 36.941 49.2655C37.4369 50.8157 38.0525 52.3251 38.7821 53.78C38.716 53.7792 38.6508 53.7948 38.5923 53.8255C38.5338 53.8562 38.4838 53.901 38.447 53.9559C37.3525 55.3757 36.373 56.8806 35.5178 58.4562C35.2017 58.4517 34.8857 58.451 34.5698 58.4457ZM36.515 58.4664C36.7912 58.0045 37.0503 57.5297 37.331 57.0772C37.8973 56.1638 38.4888 55.2667 39.0959 54.3799C39.4638 55.0607 39.8649 55.7246 40.2992 56.3717C40.2589 56.3489 40.2144 56.3346 40.1684 56.3294C40.1223 56.3242 40.0758 56.3282 40.0313 56.3413C39.9869 56.3544 39.9456 56.3763 39.9098 56.4057C39.874 56.4351 39.8444 56.4713 39.8229 56.5123C39.4538 57.1685 39.0743 57.821 38.715 58.4839C37.981 58.479 37.2477 58.4732 36.515 58.4664ZM39.5593 58.4884C39.8658 57.9499 40.1628 57.4069 40.4656 56.8681C40.4978 56.812 40.5143 56.7482 40.5135 56.6836C40.9498 57.3116 41.4192 57.9159 41.9198 58.494C41.1323 58.4944 40.3455 58.4925 39.5593 58.4884ZM41.421 55.678C40.5731 54.6425 39.8286 53.5265 39.1978 52.346C38.7964 51.5424 38.4467 50.714 38.1507 49.8659C38.2096 49.838 38.2643 49.8019 38.3132 49.7587C39.2529 48.9363 40.2345 48.1914 41.2364 47.458C41.3022 47.6151 41.375 47.77 41.4369 47.9186C41.6888 48.5182 41.9381 49.123 42.2057 49.7175C41.9392 51.6795 41.5623 53.6914 41.421 55.678ZM43.3461 58.2094C43.0462 57.7807 42.733 57.3631 42.4147 56.9523C42.8542 54.6475 43.1613 52.3195 43.3346 49.9796C43.4342 49.9002 43.5059 49.7911 43.5392 49.6681C43.5724 49.5451 43.5654 49.4147 43.5193 49.296C43.2647 48.652 42.9791 48.0182 42.705 47.3846C42.6548 47.2707 42.6076 47.1594 42.5576 47.0488C42.6037 47.0366 42.6488 47.0213 42.6928 47.003C43.0343 47.0123 43.3755 46.9775 43.7081 46.8994C44.0418 46.861 44.3838 46.8116 44.7218 46.7941C45.1242 46.7702 45.0238 46.7087 44.9522 47.0088C44.8156 47.3545 44.6417 47.6843 44.4336 47.9923C44.233 48.3657 44.0361 48.7436 43.8412 49.1187C43.7969 49.1962 43.7716 49.2831 43.7674 49.3723C43.7633 49.4615 43.7804 49.5504 43.8173 49.6316C43.8613 51.6505 43.8652 54.1505 44.6382 56.0499C44.2069 56.7688 43.7739 57.4865 43.3461 58.2094ZM44.6714 58.4837C46.0258 56.3412 47.2708 54.1315 48.4017 51.863C49.4229 49.8756 50.8974 47.561 51.2905 45.2616C51.7291 45.3082 52.1781 45.3644 52.6278 45.4355C51.4697 47.4339 50.3118 49.4325 49.1539 51.4312C47.9485 53.5113 46.4098 55.6353 45.5111 57.8636C45.3696 58.2135 45.8213 58.6651 46.1034 58.299C47.5448 56.4281 48.5718 54.1017 49.7349 52.0442C50.9536 49.8869 52.1726 47.7301 53.3918 45.5738C54.0303 45.701 54.6561 45.8849 55.2619 46.1234C55.2363 46.1447 55.2136 46.1693 55.1943 46.1965C53.7349 48.2801 52.332 50.4014 50.9854 52.5603C50.3343 53.6047 49.698 54.658 49.0764 55.7204C48.4946 56.5831 47.9929 57.4972 47.5776 58.4513C46.6089 58.4636 45.6403 58.4767 44.6714 58.4837ZM52.08 58.3705C51.6797 58.3786 51.2796 58.3865 50.8797 58.3942C52.6465 55.2116 54.573 52.1203 56.6519 49.1322C56.9693 48.678 56.217 48.2704 55.901 48.7165C53.683 51.8324 51.642 55.0706 49.7877 58.4158C49.3728 58.4226 48.9584 58.4339 48.5436 58.4401C49.0238 57.7096 49.3883 56.8748 49.8125 56.1277C50.4192 55.0577 51.0413 53.9965 51.6788 52.9441C52.995 50.7687 54.3852 48.6404 55.8265 46.5463C55.8558 46.505 55.876 46.4578 55.8856 46.4079C56.5285 46.7242 57.1076 47.1562 57.5939 47.6823C57.9268 48.0533 58.2073 48.4681 58.4277 48.9151C56.3908 52.116 54.1321 55.1829 52.08 58.3705ZM59.1491 54.9009C59.1528 55.559 59.0838 56.2155 58.9433 56.8585C58.5274 58.1721 57.8379 58.1838 56.6602 58.2394C56.3558 58.2535 56.0518 58.262 55.7476 58.2729C56.8321 56.829 57.8069 55.306 58.664 53.7167C58.7103 53.626 58.7196 53.5209 58.6898 53.4235C58.6601 53.3262 58.5937 53.2442 58.5046 53.1949C58.4155 53.1456 58.3108 53.1328 58.2125 53.1593C58.1142 53.1858 58.0301 53.2495 57.9778 53.3368C56.958 55.0615 55.8341 56.7225 54.6123 58.3105C54.1654 58.3216 53.7188 58.3326 53.2725 58.3436C55.2473 55.5967 57.0101 52.6485 58.7808 49.7786C59.2267 51.4473 59.3516 53.1856 59.1491 54.9009Z" fill="#4744C9"/>
</g>
<defs>
<clipPath id="clip0_4008_6500">
<rect width="34.6483" height="45" fill="white" transform="translate(26 15)"/>
</clipPath>
</defs>
</svg>
