<svg width="86" height="75" viewBox="0 0 86 75" fill="none" xmlns="http://www.w3.org/2000/svg">
<path d="M84.8317 33.9779C82.2538 13.8256 60.5591 -2.38276 40.5639 0.289115C40.0853 0.353088 39.6123 0.429945 39.142 0.513043C39.0759 0.410754 38.9799 0.33126 38.8671 0.285325C38.7543 0.239389 38.6301 0.22923 38.5113 0.256222C35.5725 0.847243 32.6519 1.5125 29.826 2.36767C17.8953 4.6551 7.03773 11.3058 2.24848 23.1203C-5.41096 42.0153 7.52653 64.6643 25.5144 71.8647C25.934 72.0326 26.357 72.1906 26.7819 72.3433C32.241 74.771 38.2885 75.5581 44.1872 74.6087C53.8417 73.922 63.0723 70.3728 70.6998 64.4145C73.2642 62.3852 75.5046 59.9774 77.3441 57.2737C82.8522 51.1097 86.0124 43.2081 84.8317 33.9779ZM83.8232 35.8395C84.2229 40.8116 83.1864 45.7939 80.8371 50.1941C81.3291 48.7172 81.6923 47.2005 81.9225 45.661C82.7878 39.7961 81.6661 33.8478 79.3547 28.3932C78.5154 24.1886 76.7721 20.2167 74.2455 16.7527C68.5665 8.95132 59.5597 4.50228 50.3012 2.55319C47.0894 1.88432 43.8216 1.51966 40.5413 1.46403C60.6319 -1.25596 82.0855 15.5241 83.8232 35.8395ZM70.5047 61.9793C67.844 63.9125 64.9697 65.5333 61.9386 66.8095C70.7845 60.1682 77.4343 50.2369 79.4143 39.6967C79.7783 37.7574 79.9499 35.7869 79.9265 33.8139C81.2432 38.9383 81.379 44.3191 79.8465 49.4554C79.0432 52.0932 77.8162 54.5828 76.2137 56.8268C74.4938 58.7368 72.5805 60.4636 70.5047 61.9793H70.5047ZM40.9161 73.506C36.0167 73.584 31.1486 72.712 26.581 70.9381C23.2772 69.2918 20.3105 67.0419 17.8341 64.3046C18.0147 64.4456 18.1896 64.5931 18.3735 64.7303C27.0823 71.2259 38.3232 72.8837 48.9099 71.5287C50.0227 71.3863 51.1373 71.2027 52.2538 70.9779C49.8013 72.035 47.2386 72.8156 44.6132 73.3049C43.3808 73.4148 42.147 73.4855 40.916 73.506H40.9161ZM38.5463 70.6431C29.5687 70.0289 21.0968 66.5459 14.8872 59.959C14.546 59.5971 14.2175 59.2263 13.8971 58.85C13.7273 58.5487 13.5622 58.2444 13.4019 57.9371C4.75175 41.2655 10.5195 18.9494 25.2655 7.85942C31.7672 4.80423 38.6441 2.89412 46.1621 3.63269C57.5743 4.75386 67.6606 12.1251 74.1055 21.3224C75.77 23.6957 77.1713 26.2431 78.2846 28.9197C80.5744 41.9733 72.9842 55.9232 62.7898 64.4594C60.9417 66.0083 58.9691 67.4025 56.8922 68.6278C50.9451 70.3835 44.7327 71.0659 38.5462 70.6431H38.5463ZM34.7029 2.84013C35.4784 2.77249 36.2554 2.72309 37.0337 2.69193C35.3533 2.97667 33.6931 3.36974 32.0634 3.86866C32.7603 3.56171 33.4693 3.27502 34.1929 3.01401C34.3624 2.9529 34.5329 2.8981 34.7029 2.84013ZM24.7967 6.7201C21.3438 8.39344 17.9894 10.2629 14.75 12.3194C14.8287 12.231 14.9019 12.1383 14.9817 12.0507C19.0259 7.61299 24.4137 5.14849 30.0715 3.49053C28.2209 4.40842 26.4557 5.48921 24.7967 6.7201ZM12.654 14.9432C12.7786 14.9514 12.9025 14.9177 13.0058 14.8475C15.5621 13.2144 18.1542 11.6123 20.8009 10.1488C12.1995 18.653 7.52987 31.3357 8.31628 43.6364C8.53299 47.0017 9.18798 50.3243 10.2647 53.5201C7.59099 48.4174 6.1623 42.7545 6.09528 36.9941C5.93591 29.2075 8.12031 21.284 12.6539 14.9432H12.654ZM60.8238 7.35363C65.8477 9.75156 70.2093 13.3414 73.5285 17.8106C74.5859 19.2589 75.4988 20.8074 76.254 22.4339C75.5605 21.3158 74.8243 20.232 74.0508 19.1918C70.4936 14.3865 65.9926 10.3582 60.8238 7.35363H60.8238ZM1.3636 34.6348C1.25168 23.3303 7.6118 13.5875 17.2674 8.0716C18.0267 7.63783 18.7991 7.23282 19.5846 6.85658C16.7088 8.64173 14.1751 10.9265 12.1032 13.603C6.02434 21.4861 3.99449 32.1728 5.25154 41.9008C6.09353 48.3727 8.74494 54.4756 12.9009 59.5077C14.2911 62.0058 16.0183 64.3007 18.034 66.328C16.817 65.4677 15.6488 64.5404 14.5348 63.5504C10.4756 59.89 7.21194 55.4346 4.94622 50.4605C2.6805 45.4864 1.46107 40.0998 1.3636 34.6348ZM54.0356 71.5612C55.3846 70.9337 56.6999 70.2362 57.9762 69.4716C61.536 68.3126 64.9512 66.7496 68.1552 64.8132C66.9729 65.6632 65.7482 66.4527 64.486 67.1786C61.1936 69.0589 57.6843 70.5306 54.0356 71.5612H54.0356Z" fill="#4744C9"/>
<g clip-path="url(#clip0_4008_6517)">
<path fill-rule="evenodd" clip-rule="evenodd" d="M54.4658 23.5073C54.5614 23.1408 54.6662 22.7727 54.7706 22.4035C55.1294 22.0878 55.4843 21.7686 55.8353 21.4459C56.3095 21.5639 56.7822 21.6873 57.2534 21.8162C56.501 22.4309 55.7843 23.0837 55.1062 23.7717C54.8856 23.7137 54.6651 23.6561 54.4446 23.5989L54.4658 23.5073ZM46.3928 18.9976C45.6682 19.7078 44.891 20.3529 44.1321 21.0373C44.2194 20.6565 44.3841 20.2331 44.4301 20.0326C44.6656 18.999 44.7872 18.6706 45.9466 18.9042C46.0957 18.9342 46.2444 18.9654 46.3928 18.9976ZM44.0788 21.4943C44.0799 21.5663 44.1012 21.6367 44.1406 21.6982C44.3172 21.9406 45.5353 22.0018 46.2179 22.051C46.6078 21.5997 47.0611 21.2013 47.5652 20.8666L49.0148 19.7209C48.4555 19.5336 47.8895 19.3661 47.3169 19.2182C46.5242 20.1241 45.6166 20.9338 44.6146 21.6289C44.571 21.6565 44.5217 21.675 44.47 21.6832C44.4183 21.6913 44.3653 21.689 44.3146 21.6762C44.264 21.6635 44.2167 21.6407 44.1761 21.6093C44.1354 21.578 44.1022 21.5388 44.0788 21.4943ZM47.2426 22.2046C47.5385 21.9933 47.8115 21.7474 48.0936 21.522C48.6616 21.0676 49.2304 20.6135 49.8 20.1597C49.8434 20.1262 49.8793 20.0848 49.9057 20.038C50.3851 20.2189 50.8594 20.4144 51.3287 20.6246C50.9075 21.0525 50.4718 21.4661 50.012 21.857C49.6722 22.1461 49.285 22.3984 48.9763 22.7168C48.8654 22.6736 48.7557 22.6311 48.6483 22.5935C48.19 22.4326 47.7202 22.3027 47.2426 22.2046ZM49.9245 23.0357C50.1705 23.1138 50.4392 23.0964 50.6717 22.9874C50.9043 22.8785 51.082 22.6867 51.166 22.454L51.1652 22.4535C51.2624 22.2312 51.3287 21.9979 51.3625 21.7594C51.0997 22.0156 50.8292 22.2644 50.5509 22.5059C50.3465 22.6824 50.1424 22.8689 49.9245 23.0358V23.0357ZM58.1466 22.0701C58.1231 22.1198 58.089 22.1644 58.0466 22.2012C57.3708 22.799 56.714 23.4439 56.0011 24.0102C56.4243 24.1247 56.8476 24.2412 57.271 24.3595C57.8881 23.6555 58.5777 23.0115 59.3295 22.4371C58.9369 22.3089 58.5426 22.1866 58.1466 22.0701ZM60.2661 22.7571L60.3055 22.7711C60.7342 22.893 61.1493 23.054 61.5451 23.252C62.4995 23.985 62.1939 24.4036 61.993 25.2917C61.8572 25.8835 61.7067 26.4728 61.5567 27.0612C61.4816 27.012 61.3902 26.9905 61.2995 27.0006C61.2089 27.0108 61.1252 27.0519 61.0643 27.1163C60.2244 27.9334 59.3077 28.7289 58.4729 29.5767C58.5625 29.2973 58.6542 29.0184 58.7479 28.7402C59.1057 27.9738 59.3877 27.1776 59.5903 26.3618C60.3984 25.7465 61.1627 25.0812 61.8782 24.3703C62.2733 23.9944 61.6573 23.4218 61.2582 23.7935C60.6679 24.3244 60.0479 24.8248 59.401 25.2927C59.373 25.2508 59.3422 25.2105 59.3088 25.1723C59.0207 24.8902 58.6521 24.6939 58.2481 24.6073C58.958 24.0282 59.6318 23.4104 60.2661 22.7571ZM58.1129 26.2993C58.1325 26.185 58.1091 26.0678 58.0468 25.9682C57.8484 25.6758 56.3948 25.445 56.0124 25.3214C55.3854 25.1192 54.7609 24.909 54.1396 24.6971C54.0246 25.0423 53.85 25.3672 53.6231 25.6584C52.4858 27.0585 50.4829 27.0118 48.8688 26.5273C46.7156 25.8817 44.5993 25.1955 42.4274 24.5936C41.0733 24.2179 40.0786 23.5309 40.2317 22.087C40.2768 21.7019 40.3534 21.3207 40.461 20.9469L40.4604 20.9467C39.7007 20.7409 38.9379 20.5348 38.1782 20.3277C37.6825 20.1438 37.1703 20.0027 36.6478 19.9061C35.9491 19.855 36.2079 19.3717 36.4131 20.4069C36.662 21.6762 36.0477 23.5605 35.6631 24.7538C34.6159 28.0161 33.1771 31.1291 32.2093 34.4275C31.3153 37.475 30.422 40.5243 29.5295 43.5753C29.2933 44.3821 29.057 45.1895 28.8205 45.9975C28.5121 46.686 28.3016 47.4103 28.1946 48.1513C28.2902 49.2524 30.9258 49.1701 31.9338 49.3902C34.968 50.0544 37.8679 51.1582 40.8108 52.1042C42.3667 52.604 43.9411 53.0086 45.5205 53.4302C46.1687 53.5955 46.8059 53.7972 47.4288 54.0342C47.9161 54.2225 48.451 54.6417 48.94 54.7801C49.4329 54.919 49.129 55.0617 49.5131 54.7237C49.7473 54.516 49.8332 54.0222 49.9573 53.7376C50.2876 52.9783 50.5973 52.2108 50.8865 51.4352C51.3871 50.0933 51.8285 48.7335 52.2299 47.3624C53.0913 44.434 53.7668 41.461 54.4792 38.4995C55.1651 35.6224 55.871 32.7442 56.7761 29.919C57.049 29.0653 57.3416 28.2174 57.6679 27.3801C57.7078 27.2789 57.7637 27.1663 57.8229 27.0486C57.7848 27.0174 57.7543 26.9788 57.7335 26.9354C57.7126 26.8919 57.702 26.8448 57.7023 26.7971C57.7026 26.7494 57.7138 26.7023 57.7352 26.6591C57.7565 26.6159 57.7875 26.5777 57.826 26.5469C57.9204 26.4631 58.016 26.3806 58.1129 26.2993V26.2993ZM61.3234 27.9871C60.2847 29.1395 59.1626 30.2219 57.9652 31.2264C57.8119 31.7466 57.6634 32.2681 57.5199 32.7909C57.9666 32.4019 58.4307 32.0268 58.853 31.6187C59.5686 30.921 60.2435 30.1868 60.8747 29.4195C60.907 29.379 60.9474 29.3448 60.9935 29.319C61.1029 28.8749 61.2129 28.4309 61.3234 27.9871ZM60.5518 31.1171C60.4274 31.6235 60.3029 32.1301 60.1782 32.6367C60.11 32.6237 60.0395 32.6276 59.9733 32.6479C59.9072 32.6681 59.8476 32.7042 59.8004 32.7525C59.16 33.3597 58.5196 33.9671 57.8793 34.5745C57.5621 34.8746 57.1758 35.3535 56.7528 35.7385C56.8795 35.2271 57.0091 34.7165 57.1417 34.2067C58.4594 33.3727 59.6134 32.3272 60.5518 31.1171ZM59.8738 33.8682C59.6705 34.6844 59.4646 35.5 59.2561 36.3151C59.2343 36.326 59.2135 36.3386 59.194 36.3529C58.4156 36.9113 57.6376 37.4699 56.86 38.0288C56.6071 38.2099 56.3378 38.3867 56.0705 38.5689C56.1989 38.0248 56.3285 37.481 56.4594 36.9377C57.003 36.6361 57.4834 36.2421 57.8765 35.7756C58.5421 35.1393 59.2079 34.5035 59.8738 33.8682ZM58.94 37.532C58.8496 37.8762 58.7581 38.22 58.6656 38.5635C58.5755 38.8993 58.4841 39.2348 58.3915 39.57C58.3133 39.5159 58.2175 39.4898 58.1209 39.4962C58.0243 39.5027 57.9333 39.5414 57.864 39.6054C57.0661 40.307 56.1717 40.9985 55.3273 41.7262C55.4086 41.3844 55.4895 41.0426 55.5699 40.7009L55.7715 39.8414C56.358 39.4867 56.896 39.0186 57.4354 38.6263C57.9366 38.2615 58.4381 37.8967 58.94 37.532ZM58.1463 40.447C57.9731 41.0606 57.7962 41.6735 57.6157 42.2855C57.5964 42.2985 57.5781 42.3128 57.561 42.3283C56.7517 43.0586 55.9427 43.7891 55.134 44.5197C54.9296 44.7037 54.7147 44.8846 54.4996 45.0673C54.6464 44.5038 54.7894 43.9394 54.9287 43.3738C56.0617 42.4806 57.1001 41.4062 58.1463 40.447ZM57.1553 43.823C56.9365 44.5431 56.7136 45.2621 56.4867 45.9801C56.4296 45.9721 56.3714 45.9759 56.316 45.991C56.2605 46.0061 56.2091 46.0322 56.1652 46.0676C55.5302 46.5604 54.8961 47.0534 54.2629 47.5465C54.0786 47.6894 53.8864 47.8299 53.6934 47.9718C53.8229 47.5363 53.9485 47.0996 54.0701 46.662C54.6801 46.2 55.2113 45.6114 55.7624 45.1046L57.1553 43.823ZM56.1442 47.0553C55.9336 47.7114 55.7204 48.3668 55.5045 49.0213C55.4301 48.9794 55.3418 48.9653 55.257 48.9819C55.1722 48.9984 55.097 49.0444 55.0461 49.1108C54.5319 49.705 53.9551 50.248 53.3246 50.7313C53.1038 50.8978 52.8736 51.0507 52.6417 51.2009C52.8679 50.5687 53.0827 49.9332 53.2861 49.2946C53.7875 48.9544 54.2476 48.5377 54.7161 48.1711L56.1442 47.0553ZM55.0787 50.2995C54.7499 51.2791 54.4177 52.2579 54.082 53.2359C54.0177 53.2191 53.9499 53.219 53.8855 53.2355C53.8212 53.252 53.7627 53.2845 53.7161 53.3297C52.7784 54.178 51.7775 54.9577 50.7777 55.7371C51.4301 54.6903 51.9199 53.5597 52.2321 52.3804C53.326 51.8862 54.2964 51.1768 55.0787 50.2995ZM52.4898 56.5354C51.7785 57.1469 50.9955 57.6789 50.1563 58.1212C50.0917 58.1559 50.0433 58.2125 50.0211 58.2797C49.7623 58.2246 49.5037 58.1691 49.2453 58.1132C50.8271 56.9966 52.3099 55.7593 53.6789 54.4136L53.6418 54.5226C53.4128 55.1824 53.1874 55.8449 52.9606 56.5064C52.8916 56.4567 52.806 56.4323 52.7195 56.4376C52.633 56.443 52.5514 56.4777 52.4898 56.5354ZM50.8783 58.492C51.1258 58.5946 51.4001 58.6242 51.6656 58.5771C51.9311 58.53 52.1755 58.4083 52.3671 58.2279C52.521 57.9368 52.6308 57.6267 52.6933 57.3065C52.1418 57.7706 51.5322 58.1688 50.8783 58.492ZM48.1457 57.8718C48.707 57.3789 49.2892 56.9062 49.8788 56.4408C49.3463 56.5333 48.7967 56.4257 48.3464 56.1408C48.3308 56.1564 48.314 56.1709 48.2962 56.1843C47.7117 56.6206 47.1079 57.0763 46.4801 57.496C47.0345 57.6233 47.5897 57.7486 48.1457 57.8718ZM45.2856 57.2192C44.5128 57.0379 43.741 56.8535 42.9702 56.666C43.0862 56.5848 43.2007 56.5037 43.3141 56.4247C43.9567 55.9769 44.5718 55.4961 45.1642 54.9905C45.1871 54.9711 45.2079 54.9495 45.2263 54.9262C46.0201 55.1444 46.7955 55.4189 47.5459 55.7474C46.8112 56.2648 46.0401 56.7316 45.2856 57.2192ZM43.9876 58.3246C43.9948 58.381 44.0166 58.4348 44.0509 58.4814C44.0852 58.528 44.131 58.5658 44.1843 58.5917C44.2376 58.6176 44.2968 58.6307 44.3567 58.6298C44.4166 58.629 44.4754 58.6142 44.5279 58.5868C44.597 58.5573 44.6659 58.5267 44.7345 58.495C46.3412 58.8591 47.9523 59.2098 49.5679 59.5471C50.687 59.7811 52.337 60.4709 53.2634 59.4835C53.6774 58.88 53.9682 58.2082 54.1206 57.5029C54.5537 56.2716 54.9925 55.0405 55.42 53.8037C56.943 49.3927 58.4117 44.9628 59.66 40.4757C60.9762 35.7337 62.093 30.9416 63.2513 26.1628C63.6475 24.5149 64.1246 22.9823 62.2707 22.0419C60.0756 21.0368 57.7406 20.3334 55.3361 19.9528L55.3358 19.9523C55.397 19.0887 54.9324 18.1303 54.0599 18.0693C54.0229 18.0022 53.9721 17.9429 53.9104 17.8948C53.8488 17.8467 53.7775 17.8109 53.701 17.7894C51.4067 16.9956 49.063 16.3364 46.6833 15.8153C45.4111 15.5974 43.1695 15.3016 42.1195 16.2723C42.0663 16.3202 42.017 16.3718 41.9721 16.4268C39.8776 15.9765 37.7797 15.4305 35.6628 15.0815C34.1343 14.8284 32.8148 15.124 32.1249 16.5469C31.3855 18.4158 30.7999 20.3361 30.3733 22.2907C29.7185 24.5202 29.0608 26.7495 28.4001 28.9786C27.1251 33.2853 25.8496 37.5919 24.5736 41.8984L24.5467 41.9197C24.4957 41.9564 24.4601 42.0092 24.4463 42.0685C24.4325 42.1279 24.4413 42.1899 24.4713 42.2436C23.8525 44.33 23.2339 46.4166 22.6155 48.5036C22.213 49.8623 21.3373 51.6297 22.872 52.6408C24.3075 53.5871 26.5114 53.8034 28.1612 54.2505C30.0632 54.7656 31.9659 55.28 33.8693 55.7938C33.9063 55.8393 33.9577 55.8723 34.016 55.888C34.0743 55.9036 34.1364 55.9011 34.193 55.8806C34.6176 55.994 35.0423 56.1071 35.4672 56.22C36.2138 56.4183 36.9611 56.6129 37.7091 56.8039C37.6957 56.8621 37.6982 56.9226 37.7164 56.9796C37.7346 57.0367 37.7678 57.0883 37.813 57.1298C37.8582 57.1712 37.9138 57.201 37.9745 57.2163C38.0353 57.2316 38.0992 57.232 38.1601 57.2173C38.3058 57.1644 38.4466 57.0999 38.581 57.0247C40.3785 57.4772 42.1807 57.9105 43.9876 58.3246ZM41.8531 56.3922C41.2575 56.2452 40.6623 56.0965 40.0675 55.9462C40.6506 55.515 41.2343 55.0843 41.8185 54.6541C41.917 54.5794 41.9813 54.4715 41.998 54.353C42.0147 54.2345 41.9825 54.1144 41.9081 54.0178C42.1323 54.0844 42.357 54.1495 42.5822 54.2132C43.157 54.3752 43.7276 54.521 44.2926 54.6707C43.7747 55.0979 43.2384 55.5044 42.6782 55.883C42.4126 56.0617 42.1309 56.2243 41.8531 56.3922ZM38.9787 55.6695C37.9954 55.4182 37.013 55.1636 36.0316 54.9056C36.9826 54.3056 37.8956 53.6151 38.8019 53.0205C39.6826 53.3154 40.5645 53.6076 41.4528 53.88C41.4212 53.8943 41.3914 53.9117 41.3638 53.9321L41.3633 53.9315C40.7011 54.4179 40.0386 54.9042 39.3759 55.3905C39.2472 55.4845 39.1134 55.5768 38.9787 55.6695ZM34.8132 54.5843C34.1916 54.4195 33.5703 54.2539 32.9492 54.0874C33.1989 53.8825 33.4424 53.6701 33.689 53.4724C34.2973 52.9837 34.906 52.4956 35.5151 52.008C35.536 51.9911 35.5553 51.9725 35.5729 51.9524C36.2099 52.1545 36.8443 52.3646 37.4772 52.5766L37.8163 52.6899L36.0299 53.823C35.629 54.0767 35.2118 54.3198 34.8132 54.5843ZM31.9245 53.8123C30.7957 53.5084 29.6672 53.203 28.539 52.8961C28.8242 52.7125 29.1034 52.5191 29.3846 52.338C30.0632 51.8998 30.7426 51.4621 31.4227 51.0249C31.4905 50.9828 31.5436 50.9226 31.5752 50.8519C31.6566 50.8696 31.7378 50.8877 31.8187 50.9061C32.778 51.1257 33.7256 51.3868 34.6661 51.6711L33.1955 52.8264C32.7814 53.1511 32.3261 53.4614 31.9245 53.8123ZM27.5081 52.6161C26.9145 52.4559 26.3212 52.3009 25.7293 52.1387C26.5185 51.5784 27.2629 50.9411 28.0107 50.3293C28.251 50.3524 28.4931 50.3596 28.7131 50.3839C29.3322 50.4478 29.9476 50.5375 30.5593 50.6485C30.0284 50.9897 29.4973 51.3311 28.9659 51.6725C28.486 51.9804 27.9645 52.2676 27.5081 52.6161ZM24.8137 51.8903C24.1992 51.7447 23.5917 51.6179 23.4747 50.8405C23.5247 50.5242 23.6128 50.2143 23.7371 49.9169L23.8347 49.584C24.8523 49.0375 25.8126 48.4005 26.7027 47.6814C26.4473 48.5283 26.2577 49.5147 27.0897 50.0601C26.2954 50.6291 25.5355 51.2402 24.8137 51.8903ZM24.1606 48.4799C24.4143 47.6249 24.6696 46.7701 24.9266 45.9155C25.9963 45.3185 26.983 44.5971 27.8638 43.7679C27.6121 44.632 27.3594 45.4958 27.1058 46.3594C26.1769 47.1299 25.1928 47.8384 24.1606 48.4799ZM25.2687 44.7729L25.409 44.3029L26.1959 41.6598C27.211 40.9822 28.1836 40.2489 29.1085 39.4638C28.8548 40.3564 28.5986 41.2477 28.3398 42.1378L28.3134 42.2278C28.2473 42.25 28.1883 42.2877 28.1419 42.3374C27.2617 43.2278 26.3002 44.0428 25.2687 44.7728V44.7729ZM26.5763 40.383L27.4457 37.4667C28.4636 36.717 29.4183 35.8796 30.3739 35.0533C30.0729 36.0757 29.7778 37.0998 29.4886 38.1255C28.549 38.9179 27.5631 39.6506 26.5763 40.383ZM27.8652 36.0609L28.5535 33.7542C28.8319 33.5223 29.0884 33.2537 29.3551 33.0065C30.1321 32.2864 30.9088 31.5661 31.6852 30.8457L31.6705 30.8895C31.3623 31.8145 31.0672 32.7441 30.7852 33.6781C30.735 33.6965 30.6887 33.7234 30.6486 33.7575C29.7319 34.5253 28.7735 35.2721 27.8652 36.0609ZM29.0039 32.2445L29.941 29.104C31.188 28.1488 32.3677 27.1174 33.4727 26.0163C33.011 27.2912 32.4976 28.5554 32.0273 29.861C31.9497 29.8067 31.854 29.7809 31.758 29.7885C31.6619 29.796 31.572 29.8364 31.5049 29.902C30.815 30.5372 30.1264 31.1725 29.439 31.8081C29.3007 31.9355 29.1553 32.0854 29.0039 32.2445ZM30.4014 27.5631C30.7118 26.5249 31.0223 25.4868 31.3329 24.4487C31.4008 24.4492 31.4673 24.4305 31.5239 24.395C32.638 23.6629 33.6816 22.8389 34.6426 21.9325C34.4585 22.8933 34.2111 23.8421 33.9019 24.7736C33.8447 24.7659 33.7863 24.7712 33.7316 24.789C33.677 24.8068 33.6275 24.8366 33.5873 24.8759L33.5864 24.8752C32.5807 25.7981 31.4618 26.6595 30.4014 27.5631ZM31.6761 23.3033L32.1926 21.5806L32.3774 20.9626C33.3576 20.4121 34.2699 19.7595 35.0973 19.017C34.9507 19.4786 34.8683 19.9563 34.8521 20.4381C34.8334 20.6382 34.8111 20.8368 34.7852 21.0338C34.7141 21.0081 34.6367 21.0021 34.5621 21.0164C34.4875 21.0307 34.4187 21.0648 34.3637 21.1146C33.4951 21.8592 32.5401 22.5457 31.6761 23.3033ZM32.702 19.8768C32.8519 19.3755 33.0025 18.8743 33.1538 18.3732C33.4824 17.2888 33.8149 16.3234 35.2744 16.5408C35.637 16.5948 35.9993 16.656 36.3612 16.7243C35.2426 17.876 34.018 18.931 32.702 19.8768ZM37.145 16.8785C37.6915 16.9917 38.2378 17.1147 38.7826 17.2407C38.2712 17.6343 37.7499 18.0212 37.2431 18.4229C36.9345 18.3577 36.6213 18.3135 36.306 18.2907C36.1522 18.2784 35.9974 18.2894 35.8473 18.3235C36.266 17.9175 36.6668 17.4991 37.0501 17.0779C37.1025 17.0222 37.1356 16.9526 37.145 16.8785ZM39.4521 17.3963C39.8496 17.4892 40.2466 17.5814 40.643 17.673C40.1957 18.1287 39.7305 18.5672 39.2611 19.0027C38.8416 18.8617 38.4169 18.7236 37.9948 18.6064C38.4524 18.248 38.9031 17.8809 39.3594 17.5242C39.4036 17.4918 39.436 17.447 39.4521 17.3963ZM41.2419 17.8076L41.3715 17.8361C41.2833 18.1986 41.2125 18.5551 41.1274 18.8445C41.0599 19.0745 40.9865 19.3066 40.9083 19.5436C40.5681 19.4426 40.2158 19.3254 39.8564 19.204C40.3428 18.7617 40.8 18.2907 41.2419 17.8076ZM48.8776 47.1145L48.8779 47.1149C49.7039 47.3563 49.3842 48.5777 48.5488 48.3523C45.7306 47.594 42.9121 46.8433 40.103 46.0615C37.4636 45.3272 34.3914 44.7489 31.993 43.4589C31.8581 43.3809 31.7567 43.26 31.7069 43.1179C31.657 42.9757 31.662 42.8214 31.7208 42.6823C31.7796 42.5433 31.8886 42.4285 32.0282 42.3584C32.1679 42.2883 32.3293 42.2673 32.4837 42.2993C33.9758 42.6596 35.4436 43.1049 36.8791 43.6328C38.1635 44.0229 39.4547 44.3894 40.7473 44.7604C43.4581 45.541 46.1682 46.3257 48.8776 47.1145ZM50.2612 42.6679L50.2615 42.6685C50.4086 42.7091 50.5334 42.8022 50.6096 42.9283C50.6857 43.0544 50.7072 43.2036 50.6696 43.3444C50.6321 43.4852 50.5383 43.6067 50.408 43.6833C50.2778 43.7599 50.1213 43.7856 49.9715 43.755C47.1961 43.062 44.4231 42.3541 41.6524 41.6313C38.9802 41.0774 36.3468 40.3667 33.7675 39.5033C33.028 39.2124 33.5864 38.2615 34.2523 38.3574C36.9689 38.9022 39.6469 39.6072 42.2709 40.4682C44.9366 41.1883 47.6 41.9215 50.2612 42.6679ZM51.5643 38.2442L51.5646 38.2445C51.7222 38.288 51.8559 38.3879 51.9374 38.5229C52.019 38.658 52.042 38.8178 52.0018 38.9687C51.9615 39.1196 51.8611 39.2498 51.7216 39.3318C51.5821 39.4139 51.4144 39.4415 51.2539 39.4088C48.3047 38.7163 45.3797 37.9374 42.4546 37.1609C41.0401 36.7848 39.6242 36.4092 38.2069 36.0343C36.8028 35.7644 35.4334 35.3523 34.1222 34.8051C34.0071 34.7392 33.9173 34.64 33.8662 34.5222C33.8151 34.4043 33.8052 34.274 33.8381 34.1504C33.8711 34.0268 33.945 33.9166 34.0491 33.8358C34.1531 33.7551 34.2818 33.7083 34.4161 33.7021C35.8345 33.8793 37.2284 34.2023 38.5731 34.6653C39.9887 35.0452 41.4031 35.4256 42.8163 35.8065C45.7436 36.5913 48.6639 37.3729 51.5643 38.2442ZM52.3313 33.1179L52.3316 33.1182C53.0199 33.3549 52.7778 34.3827 52.0479 34.185C46.8293 32.784 41.5988 31.3908 36.3947 29.949C36.2222 29.9019 36.0758 29.793 35.9864 29.6455C35.8969 29.498 35.8714 29.3233 35.9153 29.1583C35.9591 28.9933 36.0688 28.8509 36.2213 28.7611C36.3738 28.6713 36.5571 28.6412 36.7326 28.6771C42.0198 29.8654 47.2284 31.3482 52.3313 33.1179ZM53.5018 29.1409L53.5023 29.1412C54.2799 29.3921 53.9933 30.5469 53.1866 30.3301C50.5081 29.6038 47.839 28.8518 45.1688 28.0973C43.7886 27.7068 42.4074 27.3179 41.0251 26.9303C39.8376 26.6872 38.683 26.3174 37.5833 25.828C37.4679 25.7624 37.3778 25.6634 37.3265 25.5456C37.2751 25.4277 37.2652 25.2973 37.2981 25.1737C37.3311 25.0501 37.4051 24.9398 37.5094 24.8593C37.6136 24.7787 37.7425 24.7321 37.8769 24.7264C39.1739 24.8855 40.4469 25.1872 41.6702 25.6256C42.958 25.9894 44.2465 26.356 45.5356 26.7253C48.2033 27.4965 50.8596 28.2953 53.5018 29.1409ZM52.8311 20.0759C52.7863 19.9334 52.6937 19.8087 52.5673 19.7207C52.4408 19.6328 52.2875 19.5863 52.1307 19.5885C52.0969 19.5909 52.0657 19.5944 52.0331 19.5952C51.9762 19.5987 51.9198 19.6086 51.8653 19.6245C50.5086 18.9733 49.0953 18.434 47.6411 18.0123C46.7023 17.7483 45.2972 17.1953 44.3189 17.5183C43.2747 17.8606 43.2248 19.0864 43.0093 19.9547C42.8016 20.7943 42.2726 21.9419 43.0283 22.6612C43.8152 23.414 45.4823 23.303 46.5064 23.485C47.7834 23.714 49.1001 24.5584 50.4182 24.5337C50.8084 24.5413 51.1937 24.4502 51.5343 24.2696C51.875 24.089 52.1586 23.8256 52.356 23.5065C52.8491 22.4276 53.0138 21.2394 52.8314 20.0764L52.8311 20.0759ZM52.9643 23.6734C53.1795 23.0296 53.3073 22.3439 53.4751 21.6869C53.5134 21.5386 54.0378 19.3504 53.7679 19.4283C53.6633 19.4623 53.5512 19.4699 53.4426 19.4504C53.334 19.431 53.2326 19.3851 53.1483 19.3173C53.064 19.2495 52.9998 19.1621 52.9618 19.0637C52.9239 18.9652 52.9136 18.8592 52.932 18.7558C50.5579 17.8884 48.09 17.2717 45.5733 16.917C44.8336 16.7951 44.0735 16.8516 43.3628 17.0811C42.7148 17.4637 42.6624 18.5395 42.4835 19.1707C42.2417 20.0313 41.1688 22.1066 41.77 22.8724C42.3185 23.5699 44.415 23.669 45.2462 23.9004C46.5971 24.2774 47.8764 24.8265 49.2169 25.2274C49.856 25.4652 50.5478 25.5474 51.229 25.4666C52.3645 25.264 52.6403 24.6414 52.9643 23.6734Z" fill="#4744C9"/>
</g>
<defs>
<clipPath id="clip0_4008_6517">
<rect width="41.6158" height="45" fill="white" transform="translate(22 15)"/>
</clipPath>
</defs>
</svg>
