<svg width="86" height="75" viewBox="0 0 86 75" fill="none" xmlns="http://www.w3.org/2000/svg">
<path d="M84.8317 33.9779C82.2538 13.8256 60.5591 -2.38276 40.5639 0.289115C40.0853 0.353088 39.6123 0.429945 39.142 0.513043C39.0759 0.410754 38.9799 0.33126 38.8671 0.285325C38.7543 0.239389 38.6301 0.22923 38.5113 0.256222C35.5725 0.847243 32.6519 1.5125 29.826 2.36767C17.8953 4.6551 7.03773 11.3058 2.24848 23.1203C-5.41096 42.0153 7.52653 64.6643 25.5144 71.8647C25.934 72.0326 26.357 72.1906 26.7819 72.3433C32.241 74.771 38.2885 75.5581 44.1872 74.6087C53.8417 73.922 63.0723 70.3728 70.6998 64.4145C73.2642 62.3852 75.5046 59.9774 77.3441 57.2737C82.8522 51.1097 86.0124 43.2081 84.8317 33.9779ZM83.8232 35.8395C84.2229 40.8116 83.1864 45.7939 80.8371 50.1941C81.3291 48.7172 81.6923 47.2005 81.9225 45.661C82.7878 39.7961 81.6661 33.8478 79.3547 28.3932C78.5154 24.1886 76.7721 20.2167 74.2455 16.7527C68.5665 8.95132 59.5597 4.50228 50.3012 2.55319C47.0894 1.88432 43.8216 1.51966 40.5413 1.46403C60.6319 -1.25596 82.0855 15.5241 83.8232 35.8395ZM70.5047 61.9793C67.844 63.9125 64.9697 65.5333 61.9386 66.8095C70.7845 60.1682 77.4343 50.2369 79.4143 39.6967C79.7783 37.7574 79.9499 35.7869 79.9265 33.8139C81.2432 38.9383 81.379 44.3191 79.8465 49.4554C79.0432 52.0932 77.8162 54.5828 76.2137 56.8268C74.4938 58.7368 72.5805 60.4636 70.5047 61.9793H70.5047ZM40.9161 73.506C36.0167 73.584 31.1486 72.712 26.581 70.9381C23.2772 69.2918 20.3105 67.0419 17.8341 64.3046C18.0147 64.4456 18.1896 64.5931 18.3735 64.7303C27.0823 71.2259 38.3232 72.8837 48.9099 71.5287C50.0227 71.3863 51.1373 71.2027 52.2538 70.9779C49.8013 72.035 47.2386 72.8156 44.6132 73.3049C43.3808 73.4148 42.147 73.4855 40.916 73.506H40.9161ZM38.5463 70.6431C29.5687 70.0289 21.0968 66.5459 14.8872 59.959C14.546 59.5971 14.2175 59.2263 13.8971 58.85C13.7273 58.5487 13.5622 58.2444 13.4019 57.9371C4.75175 41.2655 10.5195 18.9494 25.2655 7.85942C31.7672 4.80423 38.6441 2.89412 46.1621 3.63269C57.5743 4.75386 67.6606 12.1251 74.1055 21.3224C75.77 23.6957 77.1713 26.2431 78.2846 28.9197C80.5744 41.9733 72.9842 55.9232 62.7898 64.4594C60.9417 66.0083 58.9691 67.4025 56.8922 68.6278C50.9451 70.3835 44.7327 71.0659 38.5462 70.6431H38.5463ZM34.7029 2.84013C35.4784 2.77249 36.2554 2.72309 37.0337 2.69193C35.3533 2.97667 33.6931 3.36974 32.0634 3.86866C32.7603 3.56171 33.4693 3.27502 34.1929 3.01401C34.3624 2.9529 34.5329 2.8981 34.7029 2.84013ZM24.7967 6.7201C21.3438 8.39344 17.9894 10.2629 14.75 12.3194C14.8287 12.231 14.9019 12.1383 14.9817 12.0507C19.0259 7.61299 24.4137 5.14849 30.0715 3.49053C28.2209 4.40842 26.4557 5.48921 24.7967 6.7201ZM12.654 14.9432C12.7786 14.9514 12.9025 14.9177 13.0058 14.8475C15.5621 13.2144 18.1542 11.6123 20.8009 10.1488C12.1995 18.653 7.52987 31.3357 8.31628 43.6364C8.53299 47.0017 9.18798 50.3243 10.2647 53.5201C7.59099 48.4174 6.1623 42.7545 6.09528 36.9941C5.93591 29.2075 8.12031 21.284 12.6539 14.9432H12.654ZM60.8238 7.35363C65.8477 9.75156 70.2093 13.3414 73.5285 17.8106C74.5859 19.2589 75.4988 20.8074 76.254 22.4339C75.5605 21.3158 74.8243 20.232 74.0508 19.1918C70.4936 14.3865 65.9926 10.3582 60.8238 7.35363H60.8238ZM1.3636 34.6348C1.25168 23.3303 7.6118 13.5875 17.2674 8.0716C18.0267 7.63783 18.7991 7.23282 19.5846 6.85658C16.7088 8.64173 14.1751 10.9265 12.1032 13.603C6.02434 21.4861 3.99449 32.1728 5.25154 41.9008C6.09353 48.3727 8.74494 54.4756 12.9009 59.5077C14.2911 62.0058 16.0183 64.3007 18.034 66.328C16.817 65.4677 15.6488 64.5404 14.5348 63.5504C10.4756 59.89 7.21194 55.4346 4.94622 50.4605C2.6805 45.4864 1.46107 40.0998 1.3636 34.6348ZM54.0356 71.5612C55.3846 70.9337 56.6999 70.2362 57.9762 69.4716C61.536 68.3126 64.9512 66.7496 68.1552 64.8132C66.9729 65.6632 65.7482 66.4527 64.486 67.1786C61.1936 69.0589 57.6843 70.5306 54.0356 71.5612H54.0356Z" fill="#4744C9"/>
<path fill-rule="evenodd" clip-rule="evenodd" d="M60.806 25.3762C60.692 25.3978 60.5845 25.4453 60.4918 25.5149C57.3163 25.392 54.1416 25.2969 50.9678 25.2295C51.1705 23.3754 51.0827 21.3745 49.4516 20.167C47.6052 18.8032 44.723 18.9918 42.5666 19.031C41.0693 19.0593 39.5789 19.1555 38.0888 19.2758C36.8731 19.2548 35.6608 19.4105 34.4898 19.738C32.2374 20.6488 33.1452 23.2124 32.9511 25.047C31.7942 25.0489 30.6375 25.0492 29.4811 25.0572C28.2522 25.0636 27.0225 25.0746 25.7921 25.0902C24.6356 24.9925 23.4711 25.062 22.3345 25.2966C20.8943 25.7517 20.3238 27.1398 20.1679 28.5295C20.0229 30.9862 20.0299 33.4496 20.1889 35.9054C20.2167 38.4719 20.2473 41.0373 20.2807 43.6016C20.2863 44.0594 20.2807 44.5251 20.2745 44.9953C20.1921 45.0826 20.1231 45.1817 20.0699 45.2893C20.0016 45.4273 19.9826 45.5846 20.0161 45.7349C20.0496 45.8852 20.1335 46.0196 20.254 46.1156C20.1842 47.6365 20.2636 49.1607 20.4909 50.6662C20.5681 51.4069 20.8683 52.1067 21.3518 52.6731C21.8353 53.2395 22.4793 53.6459 23.1987 53.8384C25.3611 54.3855 27.9096 54.1385 30.1286 54.2062C32.7871 54.2871 35.4453 54.3558 38.1035 54.4124C43.4207 54.5224 48.7388 54.5795 54.0578 54.5839C56.3735 54.7227 58.6965 54.6742 61.0044 54.4388C61.7252 54.3845 62.4142 54.1199 62.986 53.6778C63.5578 53.2356 63.9874 52.6355 64.2214 51.9516C64.452 50.8532 64.5385 49.7294 64.4786 48.6086C64.5165 47.0999 64.5566 45.5923 64.5989 44.086C64.6765 41.1677 64.7537 38.2523 64.8303 35.3397C64.9072 32.4327 66.1094 24.3607 60.8081 25.3764L60.806 25.3762ZM35.804 20.9198C35.4746 21.2938 35.1489 21.6709 34.827 22.0511C34.6365 22.2758 34.4247 22.502 34.219 22.7361C34.2023 22.2884 34.3569 21.8513 34.6515 21.5138C34.946 21.1763 35.3582 20.9639 35.804 20.9198ZM34.1939 24.2916C34.6315 23.8726 35.0225 23.4075 35.3599 22.9043C35.1771 23.6079 35.1795 24.3468 35.367 25.0492C34.9697 25.0489 34.572 25.047 34.1732 25.047C34.1918 24.8019 34.1952 24.5478 34.1939 24.2916ZM36.2319 21.844C36.5313 21.4922 36.8335 21.143 37.1384 20.7964C37.5662 20.7627 37.9944 20.732 38.423 20.7044C38.2518 20.9501 38.0835 21.1983 37.9342 21.4556C37.3577 21.4534 36.788 21.5794 36.2662 21.8244L36.2319 21.844ZM38.8133 21.4226C38.9917 21.169 39.1611 20.908 39.3338 20.6516C39.7858 20.6279 40.2377 20.6084 40.6895 20.5928C40.4814 20.8382 40.2761 21.0864 40.0829 21.3427C39.7136 21.3653 39.3448 21.389 38.9764 21.4137C38.923 21.4169 38.8685 21.42 38.8133 21.4226ZM41.1595 21.2827C41.3588 21.0449 41.5535 20.8028 41.7503 20.5648C42.2575 20.5534 42.7798 20.5393 43.3071 20.5341C43.1501 20.7634 42.9884 20.9918 42.8355 21.2254C42.6992 21.2294 42.5694 21.2331 42.4483 21.2362C42.0185 21.2457 41.5889 21.2622 41.1595 21.2827ZM43.8003 21.2034C43.8932 21.0663 43.9857 20.9292 44.0796 20.7943C44.1072 20.7579 44.1271 20.7161 44.1379 20.6717C44.1487 20.6272 44.1502 20.581 44.1424 20.536C44.749 20.5422 45.355 20.5803 45.9577 20.6499C45.8288 20.8616 45.6922 21.0692 45.5554 21.2766C44.9723 21.2175 44.3862 21.1931 43.8003 21.2034ZM44.7091 22.7674C44.7035 22.8324 44.7178 22.8975 44.7502 22.954C44.7826 23.0106 44.8315 23.0559 44.8904 23.0839C44.9493 23.1119 45.0153 23.1213 45.0796 23.1108C45.1439 23.1003 45.2035 23.0703 45.2504 23.025C45.3129 22.9739 45.3732 22.9198 45.4322 22.8635C46.5652 23.0883 47.4195 23.6819 47.2796 25.1572L47.2789 25.157C43.7283 25.0959 40.1793 25.0606 36.6319 25.0513C36.6306 25.0184 36.6271 24.9857 36.6215 24.9534C36.5407 24.8388 36.4872 24.7073 36.4648 24.5688C36.4425 24.4304 36.452 24.2888 36.4926 24.1546C36.5332 24.0204 36.6038 23.8972 36.6991 23.7944C36.7944 23.6915 36.9119 23.6118 37.0426 23.5611C37.2038 23.105 37.4803 22.9057 37.8745 22.9564C38.3441 22.8903 38.8194 22.8733 39.2925 22.9057C40.2584 22.8644 41.222 22.8011 42.1902 22.779C42.929 22.7637 43.852 22.7002 44.7091 22.7674ZM46.4656 21.4321C46.586 21.215 46.6992 20.9972 46.8089 20.7863C46.8886 20.8023 46.9678 20.8194 47.0465 20.8375C47.4054 20.9143 47.751 21.0437 48.0721 21.2216C47.9183 21.4445 47.7609 21.6666 47.6106 21.8928C47.2572 21.6766 46.8703 21.5209 46.4656 21.4321ZM48.2064 22.4489C48.376 22.2111 48.5371 21.9657 48.6985 21.7225C48.874 21.9194 49.0166 22.1434 49.1208 22.3857C49.1138 22.3954 49.1067 22.405 49.1001 22.4154C48.9417 22.6669 48.7771 22.9135 48.6025 23.1536C48.5026 22.902 48.3694 22.665 48.2064 22.4489ZM48.8441 24.1587C48.9144 24.0667 48.9826 23.9733 49.0507 23.882C49.1652 23.7288 49.2766 23.5736 49.3851 23.4162C49.4428 24.0074 49.4453 24.6026 49.3924 25.1942C49.1892 25.1905 48.9897 25.1862 48.7891 25.1841C48.859 24.847 48.8775 24.5013 48.8441 24.1587ZM40.6484 43.523L39.3815 44.7308C39.2392 44.866 39.0915 44.9993 38.9431 45.1333L38.941 45.1121C38.8439 44.1901 38.7814 43.5235 39.9524 43.4891C40.1849 43.4858 40.4174 43.4972 40.6484 43.523ZM39.011 46.045C39.2732 45.7906 39.5256 45.5243 39.7837 45.2744C40.3084 44.7658 40.8339 44.2573 41.3602 43.7488C41.4059 43.7067 41.4378 43.6518 41.4518 43.5913C41.5999 43.5972 41.7483 43.5939 41.896 43.5814C42.2169 43.5528 42.5283 43.5082 42.836 43.4752C41.7059 44.7209 40.5331 45.9508 39.4805 47.257C39.0157 46.9502 39.0719 46.733 39.0167 46.1092L39.011 46.045ZM40.1555 47.5226C41.3713 46.2141 42.4901 44.7908 43.6483 43.4344C43.7568 43.4374 43.8654 43.4452 43.9746 43.4589C44.0351 43.5794 44.1242 43.6833 44.2342 43.7613C44.3441 43.8393 44.4716 43.8892 44.6053 43.9065C44.0032 44.5688 43.4008 45.2309 42.7982 45.8928C42.304 46.4354 41.7665 46.9637 41.2788 47.525C40.906 47.5752 40.5281 47.5744 40.1555 47.5226ZM42.4884 47.3516C42.8136 46.9739 43.1309 46.5907 43.4544 46.2299C44.0225 45.5958 44.5909 44.9619 45.1595 44.3283C45.2262 44.8105 45.2533 45.2974 45.2406 45.784C45.1754 45.7644 45.1058 45.764 45.0404 45.7829C44.9749 45.8018 44.9163 45.8392 44.8716 45.8907C44.4406 46.3467 43.9829 46.7932 43.5481 47.2565C43.193 47.2615 42.8388 47.2933 42.4884 47.3516ZM44.5081 47.4436C44.7353 47.1961 44.9596 46.946 45.1857 46.7009C45.1418 47.0248 45.0434 47.3622 44.7922 47.4601C44.6975 47.477 44.6002 47.4714 44.5081 47.4436ZM26.6325 50.399C26.0599 51.0865 25.4644 51.7636 24.9138 52.4721C24.2944 52.4992 23.6774 52.3797 23.113 52.1231C24.4605 50.7747 25.7028 49.3251 26.829 47.7871C27.0968 47.4285 26.5945 46.9373 26.3187 47.3001C25.1416 48.8181 23.8846 50.2724 22.5532 51.6569C22.5086 51.6029 22.4669 51.5466 22.4282 51.4882C22.1435 51.0246 21.9797 50.497 21.9517 49.9537C22.9377 48.6954 23.9129 47.4318 24.9045 46.1809C26.2991 46.1969 27.6938 46.2111 29.0886 46.2236C31.8405 46.2524 34.5933 46.2777 37.347 46.2996C37.3977 46.5931 37.4494 46.8675 37.4907 47.1059C37.5327 47.679 37.7979 48.2127 38.2292 48.5922C38.6606 48.9718 39.2236 49.167 39.7974 49.1357C40.662 49.1319 41.525 49.0595 42.3782 48.9193C43.2643 48.8354 44.0827 49.1277 44.9471 49.1112C46.1565 49.0883 46.6169 48.1851 46.7704 47.1048C46.799 46.8953 46.8252 46.6448 46.8438 46.3663C52.2172 46.011 57.6078 46.0009 62.9825 46.3361C62.9678 46.9038 62.9529 47.4719 62.9378 48.0405C63.009 49.1467 62.9532 50.2574 62.7713 51.3509C62.2079 53.4047 59.3189 52.9986 57.7015 53.0043C55.5526 53.0126 53.4049 53.0118 51.2584 53.002C46.9637 52.9857 42.6692 52.9348 38.3749 52.8491C34.1739 52.7673 29.9747 52.6582 25.7772 52.4982C26.2394 51.9662 26.6842 51.417 27.1381 50.8821C27.4276 50.5393 26.9211 50.0533 26.6325 50.399H26.6325ZM27.2211 42.169C26.5008 42.9936 25.782 43.8253 25.0742 44.6676L23.6937 44.643C25.1662 42.723 26.5946 40.764 28.1909 38.9374C28.4636 38.6241 28.001 38.177 27.722 38.4896C25.9867 40.4378 24.1246 42.4637 22.5407 44.6211C22.3121 44.6116 22.0735 44.5897 21.8376 44.5763L21.8273 43.5158C24.6776 40.292 27.2152 36.7333 29.879 33.355C30.1319 33.0343 29.6753 32.5885 29.4147 32.9115C26.8949 36.0416 24.2031 39.0996 21.8124 42.3377C21.8015 41.5993 21.7882 40.8604 21.7722 40.1212C23.4636 38.2042 25.0517 36.1985 26.5296 34.1126C28.1484 32.0432 29.7681 29.9743 31.3888 27.9059C31.6221 27.6065 31.1974 27.1912 30.9563 27.4935C29.267 29.6162 27.5777 31.739 25.8883 33.862C24.536 35.5594 22.9979 37.2187 21.7487 39.0156C21.7218 37.7863 21.6933 36.5564 21.6713 35.327C21.7286 35.3433 21.7895 35.3419 21.846 35.3231C21.9025 35.3043 21.952 35.2689 21.9881 35.2215C24.2703 32.3778 26.3728 29.4364 28.8083 26.7104C28.8618 26.653 28.8941 26.579 28.8999 26.5007C30.0276 26.4936 31.1553 26.4902 32.2829 26.4905C41.7691 26.49 51.252 26.8236 60.7347 26.8047C60.8965 26.8859 61.081 26.9098 61.2581 26.8725C63.9425 26.3489 63.3914 30.964 63.3545 32.3575C63.2977 34.4708 63.2412 36.5817 63.1852 38.6904L63.0167 45.026V45.038C57.6384 44.6343 52.2386 44.6035 46.8561 44.946C46.7695 43.4743 46.3227 42.0011 44.9373 42.2224C44.917 42.2136 44.9024 42.2037 44.8823 42.1957C43.3692 41.6452 41.6099 42.04 40.0246 41.8907C38.9637 41.7904 37.8514 42.012 37.3758 43.0746C37.1655 43.6604 37.0956 44.2874 37.1718 44.9052C33.9597 44.8379 30.7505 44.774 27.5439 44.7133L26.1047 44.6865C26.6512 44.0162 27.2073 43.3527 27.7732 42.6959C28.092 42.3259 27.5461 41.7984 27.2211 42.169ZM23.8671 46.1313C23.1907 46.9687 22.5306 47.8185 21.8957 48.6849C21.8796 48.1082 21.8695 47.5307 21.8621 46.9533C22.1083 46.6567 22.3513 46.3577 22.5914 46.0561C23.0166 46.0676 23.4485 46.1016 23.8671 46.1313ZM28.0406 26.5067C25.7057 28.9754 23.571 31.6258 21.6564 34.433C21.6319 32.7923 21.622 31.1523 21.6458 29.5147C21.6555 28.5849 21.6272 27.6713 22.3755 27.0298C23.0595 26.4459 24.1116 26.5093 25.0357 26.5325C25.0064 26.5482 24.9798 26.5685 24.9569 26.5926C23.8187 27.674 22.7376 28.8138 21.718 30.0076C21.6693 30.0623 21.6438 30.1339 21.6468 30.2071C21.6498 30.2803 21.6811 30.3495 21.7341 30.4001C21.7871 30.4507 21.8576 30.4788 21.9309 30.4784C22.0042 30.478 22.0744 30.4492 22.1269 30.398C23.2679 29.3195 24.3523 28.1828 25.376 26.9923C25.4069 26.9592 25.4294 26.9193 25.4419 26.8757C25.4543 26.8322 25.4562 26.7863 25.4475 26.7419C25.4387 26.6975 25.4195 26.6558 25.3915 26.6203C25.3635 26.5847 25.3274 26.5563 25.2862 26.5375C25.3648 26.5381 25.4425 26.5384 25.5182 26.5372C26.3589 26.5236 27.1996 26.5134 28.0406 26.5067Z" fill="#4744C9"/>
</svg>
